<svg version="1.1" viewBox="0.0 0.0 393.6010498687664 121.92125984251969" fill="none" stroke="none" stroke-linecap="square" stroke-miterlimit="10" xmlns:xlink="http://www.w3.org/1999/xlink" xmlns="http://www.w3.org/2000/svg"><clipPath id="g106eaa7a085_0_22.0"><path d="m0 0l393.60104 0l0 121.92126l-393.60104 0l0 -121.92126z" clip-rule="nonzero"/></clipPath><g clip-path="url(#g106eaa7a085_0_22.0)"><path fill="#ffffff" d="m0 0l393.60104 0l0 121.92126l-393.60104 0z" fill-rule="evenodd"/><path fill="#cccccc" d="m45.018494 60.417362l0 0c-15.359606 -3.3050117 -25.399708 -17.152458 -22.425198 -30.929136c2.9745083 -13.776677 17.837246 -22.26564 33.19685 -18.960629l0 0c-9.939716 4.0824003 -17.007038 12.211253 -19.118355 21.989979c-2.1113167 9.778725 0.97414017 20.092209 8.346703 27.899788z" fill-rule="evenodd"/><path stroke="#cccccc" stroke-width="1.0" stroke-linejoin="round" stroke-linecap="butt" d="m45.018494 60.417362l0 0c-15.359606 -3.3050117 -25.399708 -17.152458 -22.425198 -30.929136c2.9745083 -13.776677 17.837246 -22.26564 33.19685 -18.960629l0 0c-9.939716 4.0824003 -17.007038 12.211253 -19.118355 21.989979c-2.1113167 9.778725 0.97414017 20.092209 8.346703 27.899788z" fill-rule="evenodd"/><g filter="url(#shadowFilter-g106eaa7a085_0_22.1)"><use xlink:href="#g106eaa7a085_0_22.1" transform="matrix(1.0 0.0 0.0 1.0 1.0 0.0)"/></g><defs><filter id="shadowFilter-g106eaa7a085_0_22.1" filterUnits="userSpaceOnUse"><feGaussianBlur in="SourceAlpha" stdDeviation="0.0" result="blur"/><feComponentTransfer in="blur" color-interpolation-filters="sRGB"><feFuncR type="linear" slope="0" intercept="1.0"/><feFuncG type="linear" slope="0" intercept="1.0"/><feFuncB type="linear" slope="0" intercept="1.0"/><feFuncA type="linear" slope="1.0" intercept="0"/></feComponentTransfer></filter></defs><g id="g106eaa7a085_0_22.1"><path fill="#000000" fill-opacity="0.0" d="m23.714102 57.48819l48.69291 0l0 56.220474l-48.69291 0z" fill-rule="evenodd"/><path fill="#000000" d="m48.060772 88.26866q-1.53125 0 -2.53125 -1.0q-1.0 -1.015625 -1.0 -2.53125l0 -30.859375q0 -1.59375 1.0 -2.5625q1.0 -0.96875 2.53125 -0.96875q1.59375 0 2.5625 0.96875q0.96875 0.96875 0.96875 2.5625l0 30.859375q0 1.515625 -0.96875 2.53125q-0.96875 1.0 -2.5625 1.0zm0 -44.09375q-1.875 0 -3.234375 -1.34375q-1.34375 -1.359375 -1.34375 -3.234375q0 -1.875 1.34375 -3.21875q1.359375 -1.359375 3.234375 -1.359375q1.875 0 3.21875 1.359375q1.359375 1.34375 1.359375 3.21875q0 1.875 -1.359375 3.234375q-1.34375 1.34375 -3.21875 1.34375z" fill-rule="nonzero"/></g><path fill="#000000" fill-opacity="0.0" d="m52.293705 11.349081l344.75592 0l0 103.43307l-344.75592 0z" fill-rule="evenodd"/><path fill="#595959" d="m125.71229 86.97158q-1.390625 0 -2.296875 -0.890625q-0.90625 -0.90625 -0.90625 -2.296875l0 -19.890625q0 -4.578125 -2.328125 -7.0q-2.3125 -2.4375 -5.984375 -2.4375q-3.875 0 -6.34375 2.671875q-2.453125 2.671875 -2.453125 6.90625l-5.421875 0q0.078125 -4.578125 2.015625 -8.046875q1.9375 -3.46875 5.40625 -5.40625q3.46875 -1.9375 7.84375 -1.9375q4.015625 0 7.09375 1.8125q3.09375 1.796875 4.828125 5.234375q1.7343674 3.421875 1.7343674 8.203125l0 19.890625q0 1.390625 -0.875 2.296875q-0.8593674 0.890625 -2.3124924 0.890625zm-47.15625 0q-1.375 0 -2.28125 -0.890625q-0.90625 -0.90625 -0.90625 -2.296875l0 -31.53125q0 -1.46875 0.90625 -2.328125q0.90625 -0.875 2.28125 -0.875q1.46875 0 2.328125 0.875q0.875 0.859375 0.875 2.328125l0 31.53125q0 1.390625 -0.875 2.296875q-0.859375 0.890625 -2.328125 0.890625zm23.640625 0q-1.375 0 -2.28125 -0.890625q-0.90625 -0.90625 -0.90625 -2.296875l0 -19.890625q0 -4.578125 -2.328125 -7.0q-2.3125 -2.4375 -5.984375 -2.4375q-3.890625 0 -6.421875 2.640625q-2.515625 2.640625 -2.515625 6.71875l-4.171875 0q0.078125 -4.421875 1.90625 -7.859375q1.84375 -3.4375 5.03125 -5.375q3.1875 -1.9375 7.203125 -1.9375q4.03125 0 7.109375 1.8125q3.09375 1.796875 4.828125 5.234375q1.734375 3.421875 1.734375 8.203125l0 19.890625q0 1.390625 -0.875 2.296875q-0.859375 0.890625 -2.328125 0.890625zm55.61271 0.21875q-5.546875 0 -9.890625 -2.453125q-4.328125 -2.46875 -6.796875 -6.796875q-2.453125 -4.34375 -2.453125 -9.953125q0 -5.6875 2.453125 -10.015625q2.46875 -4.34375 6.796875 -6.796875q4.34375 -2.46875 9.890625 -2.46875q5.546875 0 9.875 2.46875q4.328125 2.453125 6.78125 6.796875q2.46875 4.328125 2.546875 10.015625q0 5.609375 -2.5 9.953125q-2.5 4.328125 -6.796875 6.796875q-4.296875 2.453125 -9.90625 2.453125zm0 -5.6875q3.8125 0 6.71875 -1.734375q2.90625 -1.734375 4.5625 -4.78125q1.671875 -3.046875 1.671875 -7.0q0 -3.953125 -1.671875 -7.03125q-1.65625 -3.09375 -4.5625 -4.828125q-2.90625 -1.734375 -6.71875 -1.734375q-3.75 0 -6.703125 1.734375q-2.9375 1.734375 -4.609375 4.828125q-1.65625 3.078125 -1.65625 7.03125q0 3.953125 1.65625 7.0q1.671875 3.046875 4.609375 4.78125q2.953125 1.734375 6.703125 1.734375zm46.86577 5.6875q-5.40625 0 -9.75 -2.53125q-4.328125 -2.53125 -6.859375 -6.890625q-2.53125 -4.375 -2.53125 -9.859375q0 -5.46875 2.359375 -9.796875q2.359375 -4.34375 6.4375 -6.875q4.09375 -2.53125 9.296875 -2.53125q4.296875 0 7.859375 1.8125q3.578125 1.796875 5.9375 4.84375l0 -19.40625q0 -1.453125 0.890625 -2.3125q0.90625 -0.875 2.296875 -0.875q1.453125 0 2.359375 0.875q0.90625 0.859375 0.90625 2.3125l0 32.09375q-0.078125 5.40625 -2.609375 9.78125q-2.53125 4.359375 -6.859375 6.859375q-4.328125 2.5 -9.734375 2.5zm0 -5.6875q3.734375 0 6.640625 -1.765625q2.921875 -1.765625 4.609375 -4.84375q1.703125 -3.09375 1.703125 -6.984375q0 -3.875 -1.703125 -6.921875q-1.6875 -3.0625 -4.609375 -4.828125q-2.90625 -1.765625 -6.640625 -1.765625q-3.609375 0 -6.59375 1.765625q-2.984375 1.765625 -4.6875 4.828125q-1.6875 3.046875 -1.6875 6.921875q0 3.890625 1.6875 6.984375q1.703125 3.078125 4.6875 4.84375q2.984375 1.765625 6.59375 1.765625zm49.28253 5.6875q-5.75 0 -10.15625 -2.453125q-4.390625 -2.46875 -6.890625 -6.796875q-2.5 -4.34375 -2.5 -9.953125q0 -5.6875 2.359375 -10.015625q2.359375 -4.34375 6.515625 -6.796875q4.15625 -2.46875 9.640625 -2.46875q5.328125 0 9.203125 2.390625q3.890625 2.390625 5.96875 6.59375q2.09375 4.1875 2.09375 9.671875q0 1.171875 -0.796875 1.96875q-0.796875 0.796875 -2.125 0.796875l-28.484375 0l0 -5.125l28.5625 0l-2.84375 2.015625q-0.078125 -3.6875 -1.46875 -6.59375q-1.375 -2.90625 -3.953125 -4.5625q-2.5625 -1.671875 -6.15625 -1.671875q-3.953125 0 -6.828125 1.796875q-2.875 1.796875 -4.40625 4.921875q-1.53125 3.125 -1.53125 7.078125q0 3.953125 1.765625 7.046875q1.78125 3.078125 4.859375 4.875q3.09375 1.796875 7.171875 1.796875q2.21875 0 4.609375 -0.828125q2.390625 -0.828125 3.78125 -1.9375q0.96875 -0.765625 2.078125 -0.796875q1.109375 -0.03125 1.953125 0.65625q1.03125 0.96875 1.09375 2.109375q0.078125 1.140625 -0.96875 1.984375q-2.34375 1.859375 -5.859375 3.078125q-3.5 1.21875 -6.6875 1.21875zm33.907257 -0.28125q-2.90625 0 -5.203125 -1.59375q-2.28125 -1.59375 -3.5625 -4.390625q-1.28125 -2.8125 -1.28125 -6.5l0 -38.546875q0 -1.375 0.859375 -2.234375q0.875 -0.875 2.25 -0.875q1.453125 0 2.3125 0.875q0.875 0.859375 0.875 2.234375l0 38.546875q0 2.703125 1.078125 4.4375q1.078125 1.734375 2.671875 1.734375l1.734375 0q1.3125 0 2.078125 0.875q0.765625 0.859375 0.765625 2.3125q0 1.390625 -1.15625 2.265625q-1.140625 0.859375 -2.9375 0.859375l-0.484375 0zm25.234985 0.28125q-4.578125 0 -8.671875 -1.421875q-4.078125 -1.421875 -6.4375 -3.921875q-0.90625 -1.03125 -0.765625 -2.28125q0.140625 -1.25 1.25 -2.15625q1.171875 -0.90625 2.421875 -0.765625q1.25 0.140625 2.078125 1.109375q1.390625 1.53125 4.0625 2.640625q2.671875 1.109375 5.859375 1.109375q4.5 0 6.6875 -1.484375q2.1875 -1.5 2.25 -3.71875q0 -2.28125 -2.15625 -3.84375q-2.140625 -1.5625 -7.546875 -2.46875q-7.0 -1.3125 -10.1875 -4.078125q-3.1875 -2.78125 -3.1875 -6.734375q0 -3.53125 1.96875 -5.84375q1.96875 -2.328125 5.1875 -3.46875q3.234375 -1.15625 6.84375 -1.15625q4.578125 0 8.03125 1.5q3.46875 1.484375 5.546875 4.125q0.90625 1.03125 0.796875 2.140625q-0.09375 1.109375 -1.140625 1.875q-1.03125 0.625 -2.390625 0.421875q-1.34375 -0.21875 -2.25 -1.1875q-1.734375 -1.796875 -3.859375 -2.515625q-2.109375 -0.734375 -4.875 -0.734375q-3.328125 0 -5.515625 1.25q-2.1875 1.234375 -2.1875 3.390625q0 1.390625 0.734375 2.4375q0.734375 1.03125 2.734375 1.90625q2.015625 0.859375 5.765625 1.546875q5.1875 0.96875 8.203125 2.5625q3.015625 1.59375 4.328125 3.75q1.328125 2.140625 1.328125 4.84375q0 3.1875 -1.765625 5.71875q-1.765625 2.53125 -5.09375 4.0q-3.328125 1.453125 -8.046875 1.453125z" fill-rule="nonzero"/><path fill="#ff4d2f" d="m337.15326 86.90908q-1.453125 0 -2.21875 -0.890625q-0.765625 -0.90625 -0.796875 -2.125q-0.03125 -1.21875 0.796875 -2.25l17.6875 -23.859375l2.90625 -2.421875l16.015625 -21.5625q0.90625 -1.03125 2.421875 -1.03125q1.328125 0 2.078125 0.828125q0.765625 0.828125 0.828125 2.046875q0.078125 1.203125 -0.6875 2.25l-16.90625 22.734375l-2.703125 2.359375l-17.125 22.953125q-0.96875 0.96875 -2.296875 0.96875zm36.75 0q-0.765625 0 -1.390625 -0.265625q-0.625 -0.28125 -1.109375 -0.90625l-16.5625 -23.03125l-2.4375 -1.859375l-16.5 -22.953125q-0.75 -1.046875 -0.65625 -2.21875q0.109375 -1.171875 0.90625 -2.03125q0.796875 -0.875 2.109375 -0.875q1.59375 0 2.359375 1.03125l15.734375 21.765625l2.359375 1.875l17.46875 24.203125q0.765625 1.03125 0.734375 2.28125q-0.03125 1.25 -0.828125 2.125q-0.796875 0.859375 -2.1875 0.859375z" fill-rule="nonzero"/><g filter="url(#shadowFilter-g106eaa7a085_0_22.2)"><use xlink:href="#g106eaa7a085_0_22.2" transform="matrix(1.0 0.0 0.0 1.0 -1.0000002624671898 0.0)"/></g><defs><filter id="shadowFilter-g106eaa7a085_0_22.2" filterUnits="userSpaceOnUse"><feGaussianBlur in="SourceAlpha" stdDeviation="0.0" result="blur"/><feComponentTransfer in="blur" color-interpolation-filters="sRGB"><feFuncR type="linear" slope="0" intercept="1.0"/><feFuncG type="linear" slope="0" intercept="1.0"/><feFuncB type="linear" slope="0" intercept="1.0"/><feFuncA type="linear" slope="1.0" intercept="0"/></feComponentTransfer></filter></defs><g id="g106eaa7a085_0_22.2"><path fill="#000000" fill-opacity="0.0" d="m23.714102 57.48819l48.69291 0l0 56.220474l-48.69291 0z" fill-rule="evenodd"/><path fill="#000000" d="m48.060772 88.26866q-1.53125 0 -2.53125 -1.0q-1.0 -1.015625 -1.0 -2.53125l0 -30.859375q0 -1.59375 1.0 -2.5625q1.0 -0.96875 2.53125 -0.96875q1.59375 0 2.5625 0.96875q0.96875 0.96875 0.96875 2.5625l0 30.859375q0 1.515625 -0.96875 2.53125q-0.96875 1.0 -2.5625 1.0zm0 -44.09375q-1.875 0 -3.234375 -1.34375q-1.34375 -1.359375 -1.34375 -3.234375q0 -1.875 1.34375 -3.21875q1.359375 -1.359375 3.234375 -1.359375q1.875 0 3.21875 1.359375q1.359375 1.34375 1.359375 3.21875q0 1.875 -1.359375 3.234375q-1.34375 1.34375 -3.21875 1.34375z" fill-rule="nonzero"/></g><g filter="url(#shadowFilter-g106eaa7a085_0_22.3)"><use xlink:href="#g106eaa7a085_0_22.3" transform="matrix(1.0 0.0 0.0 1.0 0.0 1.0000002624671849)"/></g><defs><filter id="shadowFilter-g106eaa7a085_0_22.3" filterUnits="userSpaceOnUse"><feGaussianBlur in="SourceAlpha" stdDeviation="0.0" result="blur"/><feComponentTransfer in="blur" color-interpolation-filters="sRGB"><feFuncR type="linear" slope="0" intercept="1.0"/><feFuncG type="linear" slope="0" intercept="1.0"/><feFuncB type="linear" slope="0" intercept="1.0"/><feFuncA type="linear" slope="1.0" intercept="0"/></feComponentTransfer></filter></defs><g id="g106eaa7a085_0_22.3"><path fill="#000000" fill-opacity="0.0" d="m23.714102 57.48819l48.69291 0l0 56.220474l-48.69291 0z" fill-rule="evenodd"/><path fill="#000000" d="m48.060772 88.26866q-1.53125 0 -2.53125 -1.0q-1.0 -1.015625 -1.0 -2.53125l0 -30.859375q0 -1.59375 1.0 -2.5625q1.0 -0.96875 2.53125 -0.96875q1.59375 0 2.5625 0.96875q0.96875 0.96875 0.96875 2.5625l0 30.859375q0 1.515625 -0.96875 2.53125q-0.96875 1.0 -2.5625 1.0zm0 -44.09375q-1.875 0 -3.234375 -1.34375q-1.34375 -1.359375 -1.34375 -3.234375q0 -1.875 1.34375 -3.21875q1.359375 -1.359375 3.234375 -1.359375q1.875 0 3.21875 1.359375q1.359375 1.34375 1.359375 3.21875q0 1.875 -1.359375 3.234375q-1.34375 1.34375 -3.21875 1.34375z" fill-rule="nonzero"/></g><g filter="url(#shadowFilter-g106eaa7a085_0_22.4)"><use xlink:href="#g106eaa7a085_0_22.4" transform="matrix(1.0 0.0 0.0 1.0 0.017452493438320844 -0.9998485564304526)"/></g><defs><filter id="shadowFilter-g106eaa7a085_0_22.4" filterUnits="userSpaceOnUse"><feGaussianBlur in="SourceAlpha" stdDeviation="0.0" result="blur"/><feComponentTransfer in="blur" color-interpolation-filters="sRGB"><feFuncR type="linear" slope="0" intercept="1.0"/><feFuncG type="linear" slope="0" intercept="1.0"/><feFuncB type="linear" slope="0" intercept="1.0"/><feFuncA type="linear" slope="1.0" intercept="0"/></feComponentTransfer></filter></defs><g id="g106eaa7a085_0_22.4"><path fill="#000000" fill-opacity="0.0" d="m23.714102 57.48819l48.69291 0l0 56.220474l-48.69291 0z" fill-rule="evenodd"/><path fill="#000000" d="m48.060772 88.26866q-1.53125 0 -2.53125 -1.0q-1.0 -1.015625 -1.0 -2.53125l0 -30.859375q0 -1.59375 1.0 -2.5625q1.0 -0.96875 2.53125 -0.96875q1.59375 0 2.5625 0.96875q0.96875 0.96875 0.96875 2.5625l0 30.859375q0 1.515625 -0.96875 2.53125q-0.96875 1.0 -2.5625 1.0zm0 -44.09375q-1.875 0 -3.234375 -1.34375q-1.34375 -1.359375 -1.34375 -3.234375q0 -1.875 1.34375 -3.21875q1.359375 -1.359375 3.234375 -1.359375q1.875 0 3.21875 1.359375q1.359375 1.34375 1.359375 3.21875q0 1.875 -1.359375 3.234375q-1.34375 1.34375 -3.21875 1.34375z" fill-rule="nonzero"/></g><path fill="#000000" fill-opacity="0.0" d="m26.485632 20.053064l0 0c7.801565 -12.245936 24.053278 -15.84881 36.299217 -8.047245l0 0c5.880703 3.7464447 10.032284 9.675545 11.541431 16.482967c1.5091553 6.8074245 0.2522583 13.935541 -3.4941864 19.816244l0 0c-7.801567 12.245937 -24.05328 15.848808 -36.299217 8.047245l0 0c-12.245934 -7.8015633 -15.848808 -24.053276 -8.047243 -36.29921z" fill-rule="evenodd"/><path stroke="#78909c" stroke-width="4.0" stroke-linejoin="round" stroke-linecap="butt" d="m26.485632 20.053064l0 0c7.801565 -12.245936 24.053278 -15.84881 36.299217 -8.047245l0 0c5.880703 3.7464447 10.032284 9.675545 11.541431 16.482967c1.5091553 6.8074245 0.2522583 13.935541 -3.4941864 19.816244l0 0c-7.801567 12.245937 -24.05328 15.848808 -36.299217 8.047245l0 0c-12.245934 -7.8015633 -15.848808 -24.053276 -8.047243 -36.29921z" fill-rule="evenodd"/><path fill="#000000" fill-opacity="0.0" d="m23.714102 57.48819l48.69291 0l0 56.220474l-48.69291 0z" fill-rule="evenodd"/><path fill="#000000" d="m48.060772 88.26866q-1.53125 0 -2.53125 -1.0q-1.0 -1.015625 -1.0 -2.53125l0 -30.859375q0 -1.59375 1.0 -2.5625q1.0 -0.96875 2.53125 -0.96875q1.59375 0 2.5625 0.96875q0.96875 0.96875 0.96875 2.5625l0 30.859375q0 1.515625 -0.96875 2.53125q-0.96875 1.0 -2.5625 1.0zm0 -44.09375q-1.875 0 -3.234375 -1.34375q-1.34375 -1.359375 -1.34375 -3.234375q0 -1.875 1.34375 -3.21875q1.359375 -1.359375 3.234375 -1.359375q1.875 0 3.21875 1.359375q1.359375 1.34375 1.359375 3.21875q0 1.875 -1.359375 3.234375q-1.34375 1.34375 -3.21875 1.34375z" fill-rule="nonzero"/><path fill="#000000" fill-opacity="0.0" d="m67.93685 88.79002l251.55905 0l0 42.015747l-251.55905 0z" fill-rule="evenodd"/><path fill="#000000" d="m84.37994 115.71002q-0.359375 0 -0.59375 -0.203125q-0.21875 -0.21875 -0.21875 -0.59375l0 -8.609375q0 -0.375 0.21875 -0.578125q0.234375 -0.21875 0.59375 -0.21875q0.34375 0 0.5625 0.21875q0.21875 0.203125 0.21875 0.578125l0 8.609375q0 0.375 -0.21875 0.59375q-0.21875 0.203125 -0.5625 0.203125zm-0.03125 -12.046875q-0.4375 0 -0.765625 -0.328125q-0.3125 -0.328125 -0.3125 -0.78125q0 -0.46875 0.328125 -0.765625q0.328125 -0.296875 0.75 -0.296875q0.4375 0 0.765625 0.296875q0.328125 0.296875 0.328125 0.765625q0 0.453125 -0.328125 0.78125q-0.3125 0.328125 -0.765625 0.328125zm13.138153 12.046875q-0.359375 0 -0.578125 -0.21875q-0.21875 -0.234375 -0.21875 -0.5625l0 -4.765625q0 -1.125 -0.421875 -1.84375q-0.421875 -0.71875 -1.15625 -1.078125q-0.71875 -0.375 -1.65625 -0.375q-0.875 0 -1.578125 0.34375q-0.703125 0.34375 -1.109375 0.9375q-0.40625 0.578125 -0.40625 1.34375l-1.078125 0q0.03125 -1.171875 0.609375 -2.09375q0.59375 -0.921875 1.578125 -1.453125q1.0 -0.546875 2.203125 -0.546875q1.3125 0 2.34375 0.546875q1.046875 0.546875 1.640625 1.609375q0.609375 1.0625 0.609375 2.609375l0 4.765625q0 0.328125 -0.21875 0.5625q-0.21875 0.21875 -0.5625 0.21875zm-7.90625 0q-0.375 0 -0.59375 -0.203125q-0.21875 -0.21875 -0.21875 -0.578125l0 -8.625q0 -0.375 0.21875 -0.578125q0.21875 -0.21875 0.59375 -0.21875q0.34375 0 0.5625 0.21875q0.21875 0.203125 0.21875 0.578125l0 8.625q0 0.359375 -0.21875 0.578125q-0.21875 0.203125 -0.5625 0.203125zm15.761353 0q-0.96875 0 -1.734375 -0.46875q-0.765625 -0.46875 -1.203125 -1.28125q-0.4375 -0.828125 -0.4375 -1.84375l0 -9.078125q0 -0.328125 0.203125 -0.546875q0.21875 -0.234375 0.578125 -0.234375q0.34375 0 0.5625 0.234375q0.21875 0.21875 0.21875 0.546875l0 9.078125q0 0.875 0.515625 1.453125q0.515625 0.578125 1.296875 0.578125l0.5625 0q0.296875 0 0.5 0.21875q0.203125 0.21875 0.203125 0.5625q0 0.359375 -0.25 0.578125q-0.25 0.203125 -0.640625 0.203125l-0.375 0zm-4.484375 -8.46875q-0.3125 0 -0.515625 -0.1875q-0.203125 -0.203125 -0.203125 -0.484375q0 -0.296875 0.203125 -0.484375q0.203125 -0.203125 0.515625 -0.203125l4.609375 0q0.328125 0 0.53125 0.203125q0.203125 0.1875 0.203125 0.484375q0 0.28125 -0.203125 0.484375q-0.203125 0.1875 -0.53125 0.1875l-4.609375 0zm12.765442 8.5625q-1.53125 0 -2.703125 -0.65625q-1.171875 -0.671875 -1.84375 -1.84375q-0.671875 -1.171875 -0.671875 -2.6875q0 -1.53125 0.625 -2.6875q0.640625 -1.171875 1.75 -1.84375q1.109375 -0.671875 2.5625 -0.671875q1.421875 0 2.46875 0.640625q1.0625 0.640625 1.625 1.78125q0.578125 1.140625 0.578125 2.59375q0 0.3125 -0.21875 0.515625q-0.203125 0.1875 -0.515625 0.1875l-7.796875 0l0 -1.28125l7.890625 0l-0.796875 0.5625q0.015625 -1.03125 -0.375 -1.84375q-0.390625 -0.828125 -1.125 -1.296875q-0.71875 -0.46875 -1.734375 -0.46875q-1.0625 0 -1.859375 0.5q-0.78125 0.484375 -1.203125 1.359375q-0.421875 0.859375 -0.421875 1.953125q0 1.09375 0.484375 1.953125q0.484375 0.859375 1.328125 1.34375q0.859375 0.484375 1.953125 0.484375q0.640625 0 1.296875 -0.21875q0.671875 -0.21875 1.0625 -0.5625q0.21875 -0.15625 0.5 -0.171875q0.296875 -0.015625 0.484375 0.15625q0.28125 0.25 0.28125 0.53125q0.015625 0.265625 -0.25 0.484375q-0.609375 0.515625 -1.5625 0.859375q-0.953125 0.328125 -1.8125 0.328125zm7.5078735 -6.421875q0.03125 -1.140625 0.578125 -2.03125q0.546875 -0.90625 1.453125 -1.421875q0.90625 -0.53125 2.0 -0.53125q0.9375 0 1.4375 0.28125q0.5 0.28125 0.359375 0.765625q-0.046875 0.25 -0.234375 0.375q-0.171875 0.109375 -0.40625 0.109375q-0.234375 0 -0.53125 -0.046875q-1.09375 -0.125 -1.953125 0.15625q-0.84375 0.265625 -1.34375 0.875q-0.5 0.609375 -0.5 1.46875l-0.859375 0zm0.09375 6.328125q-0.375 0 -0.59375 -0.203125q-0.203125 -0.203125 -0.203125 -0.578125l0 -8.640625q0 -0.375 0.203125 -0.578125q0.21875 -0.203125 0.59375 -0.203125q0.359375 0 0.5625 0.203125q0.203125 0.203125 0.203125 0.578125l0 8.640625q0 0.375 -0.203125 0.578125q-0.203125 0.203125 -0.5625 0.203125zm8.728081 4.359375q-0.375 0 -0.59375 -0.21875q-0.21875 -0.203125 -0.21875 -0.578125l0 -8.71875q0.03125 -1.453125 0.703125 -2.609375q0.6875 -1.171875 1.84375 -1.84375q1.15625 -0.6875 2.609375 -0.6875q1.5 0 2.65625 0.6875q1.171875 0.671875 1.84375 1.859375q0.6875 1.171875 0.6875 2.65625q0 1.46875 -0.640625 2.65625q-0.640625 1.171875 -1.765625 1.859375q-1.125 0.671875 -2.53125 0.671875q-1.21875 0 -2.21875 -0.515625q-0.984375 -0.515625 -1.59375 -1.34375l0 5.328125q0 0.375 -0.234375 0.578125q-0.21875 0.21875 -0.546875 0.21875zm4.34375 -5.6875q1.046875 0 1.875 -0.484375q0.828125 -0.5 1.296875 -1.359375q0.484375 -0.859375 0.484375 -1.921875q0 -1.078125 -0.484375 -1.921875q-0.46875 -0.859375 -1.296875 -1.359375q-0.828125 -0.5 -1.875 -0.5q-1.0 0 -1.84375 0.5q-0.828125 0.5 -1.296875 1.359375q-0.453125 0.84375 -0.453125 1.921875q0 1.0625 0.453125 1.921875q0.46875 0.859375 1.28125 1.359375q0.828125 0.484375 1.859375 0.484375zm8.718185 -5.0q0.03125 -1.140625 0.578125 -2.03125q0.546875 -0.90625 1.453125 -1.421875q0.90625 -0.53125 2.0 -0.53125q0.9375 0 1.4375 0.28125q0.5 0.28125 0.359375 0.765625q-0.046875 0.25 -0.234375 0.375q-0.171875 0.109375 -0.40625 0.109375q-0.234375 0 -0.53125 -0.046875q-1.09375 -0.125 -1.953125 0.15625q-0.84375 0.265625 -1.34375 0.875q-0.5 0.609375 -0.5 1.46875l-0.859375 0zm0.09375 6.328125q-0.375 0 -0.59375 -0.203125q-0.203125 -0.203125 -0.203125 -0.578125l0 -8.640625q0 -0.375 0.203125 -0.578125q0.21875 -0.203125 0.59375 -0.203125q0.359375 0 0.5625 0.203125q0.203125 0.203125 0.203125 0.578125l0 8.640625q0 0.375 -0.203125 0.578125q-0.203125 0.203125 -0.5625 0.203125zm11.856415 0.09375q-1.53125 0 -2.703125 -0.65625q-1.171875 -0.671875 -1.84375 -1.84375q-0.671875 -1.171875 -0.671875 -2.6875q0 -1.53125 0.625 -2.6875q0.640625 -1.171875 1.75 -1.84375q1.109375 -0.671875 2.5625 -0.671875q1.421875 0 2.46875 0.640625q1.0625 0.640625 1.625 1.78125q0.578125 1.140625 0.578125 2.59375q0 0.3125 -0.21875 0.515625q-0.203125 0.1875 -0.515625 0.1875l-7.796875 0l0 -1.28125l7.890625 0l-0.796875 0.5625q0.015625 -1.03125 -0.375 -1.84375q-0.390625 -0.828125 -1.125 -1.296875q-0.71875 -0.46875 -1.734375 -0.46875q-1.0625 0 -1.859375 0.5q-0.78125 0.484375 -1.203125 1.359375q-0.421875 0.859375 -0.421875 1.953125q0 1.09375 0.484375 1.953125q0.484375 0.859375 1.328125 1.34375q0.859375 0.484375 1.953125 0.484375q0.640625 0 1.296875 -0.21875q0.671875 -0.21875 1.0625 -0.5625q0.21875 -0.15625 0.5 -0.171875q0.296875 -0.015625 0.484375 0.15625q0.28125 0.25 0.28125 0.53125q0.015625 0.265625 -0.25 0.484375q-0.609375 0.515625 -1.5625 0.859375q-0.953125 0.328125 -1.8125 0.328125zm10.710999 -0.09375q-0.96875 0 -1.734375 -0.46875q-0.765625 -0.46875 -1.203125 -1.28125q-0.4375 -0.828125 -0.4375 -1.84375l0 -9.078125q0 -0.328125 0.203125 -0.546875q0.21875 -0.234375 0.578125 -0.234375q0.34375 0 0.5625 0.234375q0.21875 0.21875 0.21875 0.546875l0 9.078125q0 0.875 0.515625 1.453125q0.515625 0.578125 1.296875 0.578125l0.5625 0q0.296875 0 0.5 0.21875q0.203125 0.21875 0.203125 0.5625q0 0.359375 -0.25 0.578125q-0.25 0.203125 -0.640625 0.203125l-0.375 0zm-4.484375 -8.46875q-0.3125 0 -0.515625 -0.1875q-0.203125 -0.203125 -0.203125 -0.484375q0 -0.296875 0.203125 -0.484375q0.203125 -0.203125 0.515625 -0.203125l4.609375 0q0.328125 0 0.53125 0.203125q0.203125 0.1875 0.203125 0.484375q0 0.28125 -0.203125 0.484375q-0.203125 0.1875 -0.53125 0.1875l-4.609375 0zm12.499817 8.5625q-1.40625 0 -2.53125 -0.671875q-1.125 -0.6875 -1.78125 -1.859375q-0.640625 -1.1875 -0.640625 -2.65625q0 -1.484375 0.671875 -2.65625q0.6875 -1.1875 1.859375 -1.859375q1.171875 -0.6875 2.65625 -0.6875q1.453125 0 2.609375 0.6875q1.171875 0.671875 1.84375 1.859375q0.6875 1.171875 0.71875 2.65625l-0.640625 0.3125q0 1.390625 -0.625 2.5q-0.625 1.09375 -1.703125 1.734375q-1.0625 0.640625 -2.4375 0.640625zm0.234375 -1.421875q1.046875 0 1.859375 -0.484375q0.8125 -0.5 1.28125 -1.359375q0.46875 -0.859375 0.46875 -1.921875q0 -1.078125 -0.46875 -1.921875q-0.46875 -0.859375 -1.28125 -1.359375q-0.8125 -0.5 -1.859375 -0.5q-1.03125 0 -1.859375 0.5q-0.828125 0.5 -1.3125 1.359375q-0.484375 0.84375 -0.484375 1.921875q0 1.0625 0.484375 1.921875q0.484375 0.859375 1.3125 1.359375q0.828125 0.484375 1.859375 0.484375zm4.359375 1.328125q-0.328125 0 -0.5625 -0.203125q-0.234375 -0.21875 -0.234375 -0.578125l0 -3.078125l0.359375 -1.625l1.25 0.390625l0 4.3125q0 0.359375 -0.234375 0.578125q-0.21875 0.203125 -0.578125 0.203125zm8.752258 0.09375q-1.453125 0 -2.609375 -0.671875q-1.15625 -0.6875 -1.84375 -1.84375q-0.671875 -1.171875 -0.703125 -2.640625l0 -8.703125q0 -0.375 0.21875 -0.59375q0.21875 -0.21875 0.59375 -0.21875q0.34375 0 0.5625 0.21875q0.21875 0.21875 0.21875 0.59375l0 5.328125q0.609375 -0.828125 1.59375 -1.34375q1.0 -0.515625 2.21875 -0.515625q1.40625 0 2.53125 0.6875q1.125 0.671875 1.765625 1.859375q0.640625 1.171875 0.640625 2.640625q0 1.484375 -0.6875 2.671875q-0.671875 1.171875 -1.84375 1.859375q-1.15625 0.671875 -2.65625 0.671875zm0 -1.421875q1.046875 0 1.875 -0.5q0.828125 -0.5 1.296875 -1.34375q0.484375 -0.859375 0.484375 -1.9375q0 -1.0625 -0.484375 -1.921875q-0.46875 -0.859375 -1.296875 -1.34375q-0.828125 -0.5 -1.875 -0.5q-1.0 0 -1.84375 0.5q-0.828125 0.484375 -1.296875 1.34375q-0.453125 0.859375 -0.453125 1.921875q0 1.078125 0.453125 1.9375q0.46875 0.84375 1.296875 1.34375q0.84375 0.5 1.84375 0.5zm9.093185 1.328125q-0.359375 0 -0.59375 -0.203125q-0.21875 -0.21875 -0.21875 -0.59375l0 -8.609375q0 -0.375 0.21875 -0.578125q0.234375 -0.21875 0.59375 -0.21875q0.34375 0 0.5625 0.21875q0.21875 0.203125 0.21875 0.578125l0 8.609375q0 0.375 -0.21875 0.59375q-0.21875 0.203125 -0.5625 0.203125zm-0.03125 -12.046875q-0.4375 0 -0.765625 -0.328125q-0.3125 -0.328125 -0.3125 -0.78125q0 -0.46875 0.328125 -0.765625q0.328125 -0.296875 0.75 -0.296875q0.4375 0 0.765625 0.296875q0.328125 0.296875 0.328125 0.765625q0 0.453125 -0.328125 0.78125q-0.3125 0.328125 -0.765625 0.328125zm6.700653 12.046875q-0.78125 0 -1.375 -0.421875q-0.59375 -0.421875 -0.9375 -1.15625q-0.328125 -0.75 -0.328125 -1.71875l0 -10.484375q0 -0.359375 0.203125 -0.578125q0.21875 -0.21875 0.578125 -0.21875q0.328125 0 0.546875 0.21875q0.21875 0.21875 0.21875 0.578125l0 10.484375q0 0.765625 0.296875 1.265625q0.3125 0.484375 0.796875 0.484375l0.46875 0q0.296875 0 0.484375 0.21875q0.1875 0.203125 0.1875 0.546875q0 0.359375 -0.28125 0.578125q-0.265625 0.203125 -0.6875 0.203125l-0.171875 0zm4.169876 0q-0.359375 0 -0.59375 -0.203125q-0.21875 -0.21875 -0.21875 -0.59375l0 -8.609375q0 -0.375 0.21875 -0.578125q0.234375 -0.21875 0.59375 -0.21875q0.34375 0 0.5625 0.21875q0.21875 0.203125 0.21875 0.578125l0 8.609375q0 0.375 -0.21875 0.59375q-0.21875 0.203125 -0.5625 0.203125zm-0.03125 -12.046875q-0.4375 0 -0.765625 -0.328125q-0.3125 -0.328125 -0.3125 -0.78125q0 -0.46875 0.328125 -0.765625q0.328125 -0.296875 0.75 -0.296875q0.4375 0 0.765625 0.296875q0.328125 0.296875 0.328125 0.765625q0 0.453125 -0.328125 0.78125q-0.3125 0.328125 -0.765625 0.328125zm8.325653 12.046875q-0.96875 0 -1.734375 -0.46875q-0.765625 -0.46875 -1.203125 -1.28125q-0.4375 -0.828125 -0.4375 -1.84375l0 -9.078125q0 -0.328125 0.203125 -0.546875q0.21875 -0.234375 0.578125 -0.234375q0.34375 0 0.5625 0.234375q0.21875 0.21875 0.21875 0.546875l0 9.078125q0 0.875 0.515625 1.453125q0.515625 0.578125 1.296875 0.578125l0.5625 0q0.296875 0 0.5 0.21875q0.203125 0.21875 0.203125 0.5625q0 0.359375 -0.25 0.578125q-0.25 0.203125 -0.640625 0.203125l-0.375 0zm-4.484375 -8.46875q-0.3125 0 -0.515625 -0.1875q-0.203125 -0.203125 -0.203125 -0.484375q0 -0.296875 0.203125 -0.484375q0.203125 -0.203125 0.515625 -0.203125l4.609375 0q0.328125 0 0.53125 0.203125q0.203125 0.1875 0.203125 0.484375q0 0.28125 -0.203125 0.484375q-0.203125 0.1875 -0.53125 0.1875l-4.609375 0zm9.859192 12.921875q-0.15625 0 -0.375 -0.09375q-0.6875 -0.3125 -0.375 -0.984375l5.921875 -13.15625q0.3125 -0.640625 0.984375 -0.34375q0.6875 0.28125 0.390625 0.96875l-5.953125 13.125q-0.1875 0.484375 -0.59375 0.484375zm2.109375 -4.8125q-0.296875 0.15625 -0.5625 0.0625q-0.265625 -0.09375 -0.421875 -0.40625l-4.1875 -8.453125q-0.140625 -0.328125 -0.046875 -0.578125q0.109375 -0.265625 0.40625 -0.421875q0.3125 -0.125 0.5625 -0.03125q0.265625 0.09375 0.421875 0.390625l4.09375 8.46875q0.140625 0.296875 0.09375 0.578125q-0.046875 0.265625 -0.359375 0.390625zm12.962067 0.359375q-0.296875 0 -0.53125 -0.203125q-0.21875 -0.21875 -0.21875 -0.59375l0 -9.375q0 -1.328125 0.46875 -2.3125q0.46875 -0.984375 1.375 -1.53125q0.90625 -0.5625 2.15625 -0.5625q0.359375 0 0.578125 0.21875q0.21875 0.203125 0.21875 0.5q0 0.3125 -0.21875 0.515625q-0.21875 0.203125 -0.578125 0.203125q-0.78125 0 -1.328125 0.375q-0.546875 0.359375 -0.828125 1.0q-0.265625 0.640625 -0.265625 1.484375l0 9.484375q0 0.375 -0.21875 0.59375q-0.21875 0.203125 -0.609375 0.203125zm-1.828125 -8.46875q-0.328125 0 -0.53125 -0.1875q-0.203125 -0.203125 -0.203125 -0.484375q0 -0.296875 0.203125 -0.484375q0.203125 -0.203125 0.53125 -0.203125l4.796875 0q0.3125 0 0.5 0.203125q0.203125 0.1875 0.203125 0.484375q0 0.28125 -0.203125 0.484375q-0.1875 0.1875 -0.5 0.1875l-4.796875 0zm11.720474 8.5625q-1.515625 0 -2.6875 -0.671875q-1.15625 -0.671875 -1.828125 -1.84375q-0.671875 -1.171875 -0.671875 -2.671875q0 -1.515625 0.671875 -2.6875q0.671875 -1.171875 1.828125 -1.84375q1.171875 -0.671875 2.6875 -0.671875q1.484375 0 2.640625 0.671875q1.15625 0.671875 1.828125 1.84375q0.671875 1.171875 0.703125 2.6875q0 1.5 -0.671875 2.671875q-0.671875 1.171875 -1.84375 1.84375q-1.171875 0.671875 -2.65625 0.671875zm0 -1.421875q1.046875 0 1.859375 -0.484375q0.828125 -0.5 1.28125 -1.34375q0.46875 -0.859375 0.46875 -1.9375q0 -1.078125 -0.46875 -1.9375q-0.453125 -0.859375 -1.28125 -1.34375q-0.8125 -0.5 -1.859375 -0.5q-1.046875 0 -1.875 0.5q-0.828125 0.484375 -1.3125 1.34375q-0.46875 0.859375 -0.46875 1.9375q0 1.078125 0.46875 1.9375q0.484375 0.84375 1.3125 1.34375q0.828125 0.484375 1.875 0.484375zm8.658508 -5.0q0.03125 -1.140625 0.578125 -2.03125q0.546875 -0.90625 1.4531403 -1.421875q0.90625 -0.53125 2.0 -0.53125q0.9375 0 1.4375 0.28125q0.5 0.28125 0.359375 0.765625q-0.046875 0.25 -0.234375 0.375q-0.171875 0.109375 -0.40625 0.109375q-0.234375 0 -0.53125 -0.046875q-1.09375 -0.125 -1.953125 0.15625q-0.84375 0.265625 -1.3437653 0.875q-0.5 0.609375 -0.5 1.46875l-0.859375 0zm0.09375 6.328125q-0.375 0 -0.59375 -0.203125q-0.203125 -0.203125 -0.203125 -0.578125l0 -8.640625q0 -0.375 0.203125 -0.578125q0.21875 -0.203125 0.59375 -0.203125q0.359375 0 0.5625 0.203125q0.203125 0.203125 0.203125 0.578125l0 8.640625q0 0.375 -0.203125 0.578125q-0.203125 0.203125 -0.5625 0.203125z" fill-rule="nonzero"/><path fill="#ff4d2f" d="m271.64313 115.71002q-0.96875 0 -1.734375 -0.46875q-0.765625 -0.46875 -1.203125 -1.28125q-0.4375 -0.828125 -0.4375 -1.84375l0 -9.078125q0 -0.328125 0.203125 -0.546875q0.21875 -0.234375 0.578125 -0.234375q0.34375 0 0.5625 0.234375q0.21875 0.21875 0.21875 0.546875l0 9.078125q0 0.875 0.515625 1.453125q0.515625 0.578125 1.296875 0.578125l0.5625 0q0.296875 0 0.5 0.21875q0.203125 0.21875 0.203125 0.5625q0 0.359375 -0.25 0.578125q-0.25 0.203125 -0.640625 0.203125l-0.375 0zm-4.484375 -8.46875q-0.3125 0 -0.515625 -0.1875q-0.203125 -0.203125 -0.203125 -0.484375q0 -0.296875 0.203125 -0.484375q0.203125 -0.203125 0.515625 -0.203125l4.609375 0q0.328125 0 0.53125 0.203125q0.203125 0.1875 0.203125 0.484375q0 0.28125 -0.203125 0.484375q-0.203125 0.1875 -0.53125 0.1875l-4.609375 0zm12.765442 8.5625q-1.53125 0 -2.703125 -0.65625q-1.171875 -0.671875 -1.84375 -1.84375q-0.671875 -1.171875 -0.671875 -2.6875q0 -1.53125 0.625 -2.6875q0.640625 -1.171875 1.75 -1.84375q1.109375 -0.671875 2.5625 -0.671875q1.421875 0 2.46875 0.640625q1.0625 0.640625 1.625 1.78125q0.578125 1.140625 0.578125 2.59375q0 0.3125 -0.21875 0.515625q-0.203125 0.1875 -0.515625 0.1875l-7.796875 0l0 -1.28125l7.890625 0l-0.796875 0.5625q0.015625 -1.03125 -0.375 -1.84375q-0.390625 -0.828125 -1.125 -1.296875q-0.71875 -0.46875 -1.734375 -0.46875q-1.0625 0 -1.859375 0.5q-0.78125 0.484375 -1.203125 1.359375q-0.421875 0.859375 -0.421875 1.953125q0 1.09375 0.484375 1.953125q0.484375 0.859375 1.328125 1.34375q0.859375 0.484375 1.953125 0.484375q0.640625 0 1.296875 -0.21875q0.671875 -0.21875 1.0625 -0.5625q0.21875 -0.15625 0.5 -0.171875q0.296875 -0.015625 0.484375 0.15625q0.28125 0.25 0.28125 0.53125q0.015625 0.265625 -0.25 0.484375q-0.609375 0.515625 -1.5625 0.859375q-0.953125 0.328125 -1.8125 0.328125zm6.7734985 -0.09375q-0.359375 0 -0.546875 -0.203125q-0.171875 -0.21875 -0.203125 -0.53125q-0.015625 -0.3125 0.1875 -0.546875l4.8125 -6.53125l0.734375 -0.625l4.34375 -5.875q0.21875 -0.265625 0.59375 -0.265625q0.328125 0 0.515625 0.21875q0.203125 0.21875 0.21875 0.515625q0.015625 0.28125 -0.15625 0.515625l-4.5625 6.1875l-0.6875 0.578125l-4.6875 6.3125q-0.21875 0.25 -0.5625 0.25zm9.984375 0q-0.171875 0 -0.328125 -0.078125q-0.15625 -0.078125 -0.296875 -0.21875l-4.546875 -6.3125l-0.609375 -0.46875l-4.484375 -6.25q-0.1875 -0.234375 -0.15625 -0.53125q0.03125 -0.296875 0.21875 -0.5q0.1875 -0.21875 0.515625 -0.21875q0.390625 0 0.59375 0.265625l4.3125 5.96875l0.578125 0.4375l4.78125 6.625q0.1875 0.234375 0.171875 0.546875q0 0.3125 -0.203125 0.53125q-0.1875 0.203125 -0.546875 0.203125zm7.199066 0q-0.96875 0 -1.734375 -0.46875q-0.765625 -0.46875 -1.203125 -1.28125q-0.4375 -0.828125 -0.4375 -1.84375l0 -9.078125q0 -0.328125 0.203125 -0.546875q0.21875 -0.234375 0.578125 -0.234375q0.34375 0 0.5625 0.234375q0.21875 0.21875 0.21875 0.546875l0 9.078125q0 0.875 0.515625 1.453125q0.515625 0.578125 1.296875 0.578125l0.5625 0q0.296875 0 0.5 0.21875q0.203125 0.21875 0.203125 0.5625q0 0.359375 -0.25 0.578125q-0.25 0.203125 -0.640625 0.203125l-0.375 0zm-4.484375 -8.46875q-0.3125 0 -0.515625 -0.1875q-0.203125 -0.203125 -0.203125 -0.484375q0 -0.296875 0.203125 -0.484375q0.203125 -0.203125 0.515625 -0.203125l4.609375 0q0.328125 0 0.53125 0.203125q0.203125 0.1875 0.203125 0.484375q0 0.28125 -0.203125 0.484375q-0.203125 0.1875 -0.53125 0.1875l-4.609375 0z" fill-rule="nonzero"/></g></svg>