<svg version="1.1" viewBox="0.0 0.0 3360.0 768.0" fill="none" stroke="none" stroke-linecap="square" stroke-miterlimit="10" xmlns:xlink="http://www.w3.org/1999/xlink" xmlns="http://www.w3.org/2000/svg"><clipPath id="p.0"><path d="m0 0l3360.0 0l0 768.0l-3360.0 0l0 -768.0z" clip-rule="nonzero"/></clipPath><g clip-path="url(#p.0)"><path fill="#ffffff" d="m0 0l3360.0 0l0 768.0l-3360.0 0z" fill-rule="evenodd"/><path fill="#000000" fill-opacity="0.0" d="m2048.1995 641.1942l602.5513 -196.06299" fill-rule="evenodd"/><path stroke="#980000" stroke-width="12.0" stroke-linejoin="round" stroke-linecap="butt" d="m2048.1995 641.1942l602.5513 -196.06299" fill-rule="evenodd"/><path fill="#000000" fill-opacity="0.0" d="m253.08398 241.91602l314.96063 0l0 180.97638l-314.96063 0z" fill-rule="evenodd"/><path fill="#000000" d="m278.71783 275.2129l0 6.796875l-6.28125 0l0 -5.375q0 -4.359375 1.046875 -6.3125q1.359375 -2.59375 4.328125 -3.9375l1.421875 2.28125q-1.78125 0.75 -2.640625 2.234375q-0.84375 1.484375 -0.9375 4.3125l3.0625 0zm10.09375 0l0 6.796875l-6.28125 0l0 -5.375q0 -4.359375 1.03125 -6.3125q1.375 -2.59375 4.328125 -3.9375l1.4375 2.28125q-1.796875 0.75 -2.640625 2.234375q-0.84375 1.484375 -0.9375 4.3125l3.0625 0zm7.509552 39.703125l0 -34.5625l5.28125 0l0 4.90625q3.796875 -5.6875 11.0 -5.6875q3.125 0 5.734375 1.125q2.625 1.125 3.921875 2.953125q1.3125 1.8125 1.828125 4.3125q0.328125 1.625 0.328125 5.703125l0 21.25l-5.859375 0l0 -21.03125q0 -3.578125 -0.6875 -5.34375q-0.6875 -1.78125 -2.421875 -2.828125q-1.734375 -1.0625 -4.078125 -1.0625q-3.75 0 -6.46875 2.375q-2.71875 2.375 -2.71875 9.015625l0 18.875l-5.859375 0zm34.89914 -17.28125q0 -9.609375 5.328125 -14.21875q4.46875 -3.84375 10.875 -3.84375q7.125 0 11.640625 4.671875q4.53125 4.671875 4.53125 12.90625q0 6.671875 -2.0 10.5q-2.0 3.8125 -5.828125 5.9375q-3.8125 2.109375 -8.34375 2.109375q-7.265625 0 -11.734375 -4.65625q-4.46875 -4.65625 -4.46875 -13.40625zm6.015625 0q0 6.640625 2.890625 9.953125q2.90625 3.296875 7.296875 3.296875q4.359375 0 7.25 -3.3125q2.90625 -3.328125 2.90625 -10.140625q0 -6.40625 -2.921875 -9.703125q-2.90625 -3.3125 -7.234375 -3.3125q-4.390625 0 -7.296875 3.296875q-2.890625 3.28125 -2.890625 9.921875zm46.02417 12.046875l0.84375 5.171875q-2.46875 0.515625 -4.421875 0.515625q-3.1875 0 -4.953125 -1.0q-1.75 -1.015625 -2.46875 -2.65625q-0.71875 -1.640625 -0.71875 -6.921875l0 -19.890625l-4.296875 0l0 -4.546875l4.296875 0l0 -8.5625l5.828125 -3.515625l0 12.078125l5.890625 0l0 4.546875l-5.890625 0l0 20.21875q0 2.5 0.296875 3.21875q0.3125 0.71875 1.015625 1.140625q0.703125 0.421875 2.0 0.421875q0.984375 0 2.578125 -0.21875zm23.163483 8.09375l5.703125 0.84375q0.359375 2.640625 1.984375 3.84375q2.1875 1.625 5.953125 1.625q4.078125 0 6.28125 -1.625q2.21875 -1.625 3.0 -4.546875q0.453125 -1.796875 0.421875 -7.53125q-3.84375 4.53125 -9.5625 4.53125q-7.140625 0 -11.046875 -5.140625q-3.90625 -5.140625 -3.90625 -12.34375q0 -4.9375 1.796875 -9.125q1.796875 -4.1875 5.1875 -6.453125q3.40625 -2.28125 8.0 -2.28125q6.109375 0 10.078125 4.9375l0 -4.15625l5.40625 0l0 29.875q0 8.078125 -1.640625 11.4375q-1.640625 3.375 -5.203125 5.328125q-3.5625 1.953125 -8.78125 1.953125q-6.171875 0 -9.984375 -2.78125q-3.8125 -2.78125 -3.6875 -8.390625zm4.859375 -20.765625q0 6.8125 2.703125 9.9375q2.703125 3.125 6.765625 3.125q4.03125 0 6.765625 -3.109375q2.734375 -3.109375 2.734375 -9.75q0 -6.34375 -2.8125 -9.5625q-2.8125 -3.234375 -6.78125 -3.234375q-3.90625 0 -6.640625 3.171875q-2.734375 3.171875 -2.734375 9.421875zm31.11789 0.625q0 -9.609375 5.328125 -14.21875q4.46875 -3.84375 10.875 -3.84375q7.125 0 11.640625 4.671875q4.53125 4.671875 4.53125 12.90625q0 6.671875 -2.0 10.5q-2.0 3.8125 -5.828125 5.9375q-3.8125 2.109375 -8.34375 2.109375q-7.265625 0 -11.734375 -4.65625q-4.46875 -4.65625 -4.46875 -13.40625zm6.015625 0q0 6.640625 2.890625 9.953125q2.90625 3.296875 7.296875 3.296875q4.359375 0 7.25 -3.3125q2.90625 -3.328125 2.90625 -10.140625q0 -6.40625 -2.921875 -9.703125q-2.90625 -3.3125 -7.234375 -3.3125q-4.390625 0 -7.296875 3.296875q-2.890625 3.28125 -2.890625 9.921875zm31.05542 0q0 -9.609375 5.328125 -14.21875q4.46875 -3.84375 10.875 -3.84375q7.125 0 11.640625 4.671875q4.53125 4.671875 4.53125 12.90625q0 6.671875 -2.0 10.5q-2.0 3.8125 -5.828125 5.9375q-3.8125 2.109375 -8.34375 2.109375q-7.265625 0 -11.734375 -4.65625q-4.46875 -4.65625 -4.46875 -13.40625zm6.015625 0q0 6.640625 2.890625 9.953125q2.90625 3.296875 7.296875 3.296875q4.359375 0 7.25 -3.3125q2.90625 -3.328125 2.90625 -10.140625q0 -6.40625 -2.921875 -9.703125q-2.90625 -3.3125 -7.234375 -3.3125q-4.390625 0 -7.296875 3.296875q-2.890625 3.28125 -2.890625 9.921875zm55.64917 17.28125l0 -4.359375q-3.28125 5.140625 -9.65625 5.140625q-4.140625 0 -7.609375 -2.28125q-3.453125 -2.28125 -5.359375 -6.359375q-1.90625 -4.078125 -1.90625 -9.390625q0 -5.171875 1.71875 -9.390625q1.734375 -4.21875 5.171875 -6.453125q3.453125 -2.25 7.71875 -2.25q3.125 0 5.5625 1.328125q2.453125 1.3125 3.96875 3.421875l0 -17.125l5.828125 0l0 47.71875l-5.4375 0zm-18.515625 -17.25q0 6.640625 2.796875 9.9375q2.796875 3.28125 6.609375 3.28125q3.84375 0 6.53125 -3.140625q2.6875 -3.140625 2.6875 -9.59375q0 -7.09375 -2.734375 -10.40625q-2.734375 -3.328125 -6.75 -3.328125q-3.890625 0 -6.515625 3.1875q-2.625 3.1875 -2.625 10.0625z" fill-rule="nonzero"/><path fill="#000000" d="m314.95428 394.91602l0 -34.5625l5.25 0l0 4.84375q1.625 -2.53125 4.328125 -4.078125q2.703125 -1.546875 6.140625 -1.546875q3.84375 0 6.296875 1.59375q2.46875 1.59375 3.46875 4.453125q4.109375 -6.046875 10.671875 -6.046875q5.15625 0 7.921875 2.84375q2.765625 2.84375 2.765625 8.765625l0 23.734375l-5.828125 0l0 -21.78125q0 -3.5 -0.578125 -5.046875q-0.5625 -1.546875 -2.0625 -2.484375q-1.5 -0.953125 -3.515625 -0.953125q-3.640625 0 -6.046875 2.421875q-2.40625 2.421875 -2.40625 7.765625l0 20.078125l-5.859375 0l0 -22.453125q0 -3.90625 -1.4375 -5.859375q-1.4375 -1.953125 -4.6875 -1.953125q-2.46875 0 -4.578125 1.296875q-2.09375 1.296875 -3.046875 3.8125q-0.9375 2.5 -0.9375 7.21875l0 17.9375l-5.859375 0zm53.353302 -17.28125q0 -9.609375 5.328125 -14.21875q4.46875 -3.84375 10.875 -3.84375q7.125 0 11.640625 4.671875q4.53125 4.671875 4.53125 12.90625q0 6.671875 -2.0 10.5q-2.0 3.8125 -5.828125 5.9375q-3.8125 2.109375 -8.34375 2.109375q-7.265625 0 -11.734375 -4.65625q-4.46875 -4.65625 -4.46875 -13.40625zm6.015625 0q0 6.640625 2.890625 9.953125q2.90625 3.296875 7.296875 3.296875q4.359375 0 7.25 -3.3125q2.90625 -3.328125 2.90625 -10.140625q0 -6.40625 -2.921875 -9.703125q-2.90625 -3.3125 -7.234375 -3.3125q-4.390625 0 -7.296875 3.296875q-2.890625 3.28125 -2.890625 9.921875zm42.83664 17.28125l-13.15625 -34.5625l6.1875 0l7.421875 20.703125q1.203125 3.34375 2.21875 6.953125q0.765625 -2.734375 2.171875 -6.5625l7.6875 -21.09375l6.015625 0l-13.078125 34.5625l-5.46875 0zm23.75 -40.984375l0 -6.734375l5.859375 0l0 6.734375l-5.859375 0zm0 40.984375l0 -34.5625l5.859375 0l0 34.5625l-5.859375 0zm38.449524 -11.125l6.046875 0.75q-1.4375 5.296875 -5.3125 8.234375q-3.859375 2.921875 -9.890625 2.921875q-7.578125 0 -12.03125 -4.671875q-4.4375 -4.671875 -4.4375 -13.09375q0 -8.734375 4.484375 -13.546875q4.5 -4.8125 11.65625 -4.8125q6.9375 0 11.328125 4.71875q4.390625 4.71875 4.390625 13.28125q0 0.515625 -0.03125 1.5625l-25.765625 0q0.3125 5.6875 3.203125 8.71875q2.90625 3.03125 7.234375 3.03125q3.234375 0 5.5 -1.6875q2.28125 -1.703125 3.625 -5.40625zm-19.25 -9.484375l19.3125 0q-0.390625 -4.359375 -2.21875 -6.53125q-2.796875 -3.390625 -7.25 -3.390625q-4.046875 0 -6.796875 2.703125q-2.75 2.703125 -3.046875 7.21875zm31.08664 -20.796875l0 -6.796875l6.28125 0l0 5.375q0 4.359375 -1.0 6.28125q-1.40625 2.640625 -4.359375 3.96875l-1.4375 -2.3125q1.75 -0.71875 2.609375 -2.265625q0.875 -1.546875 0.96875 -4.25l-3.0625 0zm10.09375 0l0 -6.796875l6.28125 0l0 5.375q0 4.359375 -1.015625 6.28125q-1.390625 2.640625 -4.359375 3.96875l-1.421875 -2.3125q1.75 -0.71875 2.609375 -2.265625q0.875 -1.546875 0.96875 -4.25l-3.0625 0z" fill-rule="nonzero"/><path fill="#000000" fill-opacity="0.0" d="m909.37006 170.4042l343.87408 0l0 100.188965l-343.87408 0z" fill-rule="evenodd"/><path fill="#000000" d="m922.7607 243.4042l0 -34.5625l5.28125 0l0 4.90625q3.796875 -5.6875 11.0 -5.6875q3.125 0 5.734375 1.125q2.625 1.125 3.921875 2.953125q1.3125 1.8125 1.828125 4.3125q0.328125 1.625 0.328125 5.703125l0 21.25l-5.859375 0l0 -21.03125q0 -3.578125 -0.6875 -5.34375q-0.6875 -1.78125 -2.421875 -2.828125q-1.734375 -1.0625 -4.078125 -1.0625q-3.75 0 -6.46875 2.375q-2.71875 2.375 -2.71875 9.015625l0 18.875l-5.859375 0zm34.89917 -17.28125q0 -9.609375 5.328125 -14.21875q4.46875 -3.84375 10.875 -3.84375q7.125 0 11.640625 4.671875q4.53125 4.671875 4.53125 12.90625q0 6.671875 -2.0 10.5q-2.0 3.8125 -5.828125 5.9375q-3.8125 2.109375 -8.34375 2.109375q-7.265625 0 -11.734375 -4.65625q-4.46875 -4.65625 -4.46875 -13.40625zm6.015625 0q0 6.640625 2.890625 9.953125q2.90625 3.296875 7.296875 3.296875q4.359375 0 7.25 -3.3125q2.90625 -3.328125 2.90625 -10.140625q0 -6.40625 -2.921875 -9.703125q-2.90625 -3.3125 -7.234375 -3.3125q-4.390625 0 -7.296875 3.296875q-2.890625 3.28125 -2.890625 9.921875zm46.02417 12.046875l0.84375 5.171875q-2.46875 0.515625 -4.421875 0.515625q-3.1875 0 -4.953125 -1.0q-1.75 -1.015625 -2.46875 -2.65625q-0.71875 -1.640625 -0.71875 -6.921875l0 -19.890625l-4.296875 0l0 -4.546875l4.296875 0l0 -8.5625l5.828125 -3.515625l0 12.078125l5.890625 0l0 4.546875l-5.890625 0l0 20.21875q0 2.5 0.296875 3.21875q0.3125 0.71875 1.015625 1.140625q0.703125 0.421875 2.0 0.421875q0.984375 0 2.578125 -0.21875z" fill-rule="nonzero"/><path fill="#000000" fill-opacity="0.0" d="m909.37006 270.4042l343.87408 0l0 100.188965l-343.87408 0z" fill-rule="evenodd"/><path fill="#000000" d="m921.68256 346.26358l5.703125 0.84375q0.359375 2.640625 1.984375 3.84375q2.1875 1.625 5.953125 1.625q4.078125 0 6.28125 -1.625q2.21875 -1.625 3.0 -4.546875q0.453125 -1.796875 0.421875 -7.53125q-3.84375 4.53125 -9.5625 4.53125q-7.140625 0 -11.046875 -5.140625q-3.90625 -5.140625 -3.90625 -12.34375q0 -4.9375 1.796875 -9.125q1.796875 -4.1875 5.1875 -6.453125q3.40625 -2.28125 8.0 -2.28125q6.109375 0 10.078125 4.9375l0 -4.15625l5.40625 0l0 29.875q0 8.078125 -1.640625 11.4375q-1.640625 3.375 -5.203125 5.328125q-3.5625 1.953125 -8.78125 1.953125q-6.171875 0 -9.984375 -2.78125q-3.8125 -2.78125 -3.6875 -8.390625zm4.859375 -20.765625q0 6.8125 2.703125 9.9375q2.703125 3.125 6.765625 3.125q4.03125 0 6.765625 -3.109375q2.734375 -3.109375 2.734375 -9.75q0 -6.34375 -2.8125 -9.5625q-2.8125 -3.234375 -6.78125 -3.234375q-3.90625 0 -6.640625 3.171875q-2.734375 3.171875 -2.734375 9.421875zm31.11792 0.625q0 -9.609375 5.328125 -14.21875q4.46875 -3.84375 10.875 -3.84375q7.125 0 11.640625 4.671875q4.53125 4.671875 4.53125 12.90625q0 6.671875 -2.0 10.5q-2.0 3.8125 -5.828125 5.9375q-3.8125 2.109375 -8.34375 2.109375q-7.265625 0 -11.734375 -4.65625q-4.46875 -4.65625 -4.46875 -13.40625zm6.015625 0q0 6.640625 2.890625 9.953125q2.90625 3.296875 7.296875 3.296875q4.359375 0 7.25 -3.3125q2.90625 -3.328125 2.90625 -10.140625q0 -6.40625 -2.921875 -9.703125q-2.90625 -3.3125 -7.234375 -3.3125q-4.390625 0 -7.296875 3.296875q-2.890625 3.28125 -2.890625 9.921875zm31.05542 0q0 -9.609375 5.328125 -14.21875q4.46875 -3.84375 10.875 -3.84375q7.125 0 11.640625 4.671875q4.531189 4.671875 4.531189 12.90625q0 6.671875 -2.0 10.5q-1.999939 3.8125 -5.828064 5.9375q-3.8125 2.109375 -8.34375 2.109375q-7.265625 0 -11.734375 -4.65625q-4.46875 -4.65625 -4.46875 -13.40625zm6.015625 0q0 6.640625 2.890625 9.953125q2.90625 3.296875 7.296875 3.296875q4.359375 0 7.25 -3.3125q2.90625 -3.328125 2.90625 -10.140625q0 -6.40625 -2.921875 -9.703125q-2.90625 -3.3125 -7.234375 -3.3125q-4.390625 0 -7.296875 3.296875q-2.890625 3.28125 -2.890625 9.921875zm55.64911 17.28125l0 -4.359375q-3.28125 5.140625 -9.65625 5.140625q-4.140625 0 -7.609375 -2.28125q-3.453125 -2.28125 -5.359375 -6.359375q-1.90625 -4.078125 -1.90625 -9.390625q0 -5.171875 1.71875 -9.390625q1.734375 -4.21875 5.171875 -6.453125q3.453125 -2.25 7.71875 -2.25q3.125 0 5.5625 1.328125q2.453125 1.3125 3.96875 3.421875l0 -17.125l5.828125 0l0 47.71875l-5.4375 0zm-18.515625 -17.25q0 6.640625 2.796875 9.9375q2.796875 3.28125 6.609375 3.28125q3.84375 0 6.53125 -3.140625q2.6875 -3.140625 2.6875 -9.59375q0 -7.09375 -2.734375 -10.40625q-2.734375 -3.328125 -6.75 -3.328125q-3.890625 0 -6.515625 3.1875q-2.625 3.1875 -2.625 10.0625z" fill-rule="nonzero"/><path fill="#000000" fill-opacity="0.0" d="m909.37006 370.4042l343.87408 0l0 100.188965l-343.87408 0z" fill-rule="evenodd"/><path fill="#000000" d="m922.7607 443.4042l0 -34.5625l5.25 0l0 4.84375q1.625 -2.53125 4.328125 -4.078125q2.703125 -1.546875 6.140625 -1.546875q3.84375 0 6.296875 1.59375q2.46875 1.59375 3.46875 4.453125q4.109375 -6.046875 10.671875 -6.046875q5.15625 0 7.921875 2.84375q2.765625 2.84375 2.765625 8.765625l0 23.734375l-5.828125 0l0 -21.78125q0 -3.5 -0.578125 -5.046875q-0.5625 -1.546875 -2.0625 -2.484375q-1.5 -0.953125 -3.515625 -0.953125q-3.640625 0 -6.046875 2.421875q-2.40625 2.421875 -2.40625 7.765625l0 20.078125l-5.859375 0l0 -22.453125q0 -3.90625 -1.4375 -5.859375q-1.4375 -1.953125 -4.6875 -1.953125q-2.46875 0 -4.578125 1.296875q-2.09375 1.296875 -3.046875 3.8125q-0.9375 2.5 -0.9375 7.21875l0 17.9375l-5.859375 0zm53.353333 -17.28125q0 -9.609375 5.328125 -14.21875q4.46875 -3.84375 10.875 -3.84375q7.125 0 11.640625 4.671875q4.53125 4.671875 4.53125 12.90625q0 6.671875 -2.0 10.5q-2.0 3.8125 -5.828125 5.9375q-3.8125 2.109375 -8.34375 2.109375q-7.265625 0 -11.734375 -4.65625q-4.46875 -4.65625 -4.46875 -13.40625zm6.015625 0q0 6.640625 2.890625 9.953125q2.90625 3.296875 7.296875 3.296875q4.359375 0 7.25 -3.3125q2.90625 -3.328125 2.90625 -10.140625q0 -6.40625 -2.921875 -9.703125q-2.90625 -3.3125 -7.234375 -3.3125q-4.390625 0 -7.296875 3.296875q-2.890625 3.28125 -2.890625 9.921875zm42.83667 17.28125l-13.15625 -34.5625l6.1875 0l7.421875 20.703125q1.203125 3.34375 2.21875 6.953125q0.765625 -2.734375 2.171875 -6.5625l7.6875 -21.09375l6.015625 0l-13.078125 34.5625l-5.46875 0zm23.75 -40.984375l0 -6.734375l5.859375 0l0 6.734375l-5.859375 0zm0 40.984375l0 -34.5625l5.859375 0l0 34.5625l-5.859375 0zm38.449463 -11.125l6.046875 0.75q-1.4375 5.296875 -5.3125 8.234375q-3.859375 2.921875 -9.890625 2.921875q-7.578125 0 -12.03125 -4.671875q-4.4375 -4.671875 -4.4375 -13.09375q0 -8.734375 4.484375 -13.546875q4.5 -4.8125 11.65625 -4.8125q6.9375 0 11.328125 4.71875q4.390625 4.71875 4.390625 13.28125q0 0.515625 -0.03125 1.5625l-25.765625 0q0.3125 5.6875 3.203125 8.71875q2.90625 3.03125 7.234375 3.03125q3.234375 0 5.5 -1.6875q2.28125 -1.703125 3.625 -5.40625zm-19.25 -9.484375l19.3125 0q-0.390625 -4.359375 -2.21875 -6.53125q-2.796875 -3.390625 -7.25 -3.390625q-4.046875 0 -6.796875 2.703125q-2.75 2.703125 -3.046875 7.21875z" fill-rule="nonzero"/><path fill="#000000" fill-opacity="0.0" d="m909.37006 470.4042l479.90558 0l0 100.188995l-479.90558 0z" fill-rule="evenodd"/><path fill="#000000" d="m922.7607 543.4042l0 -34.56247l5.28125 0l0 4.9062195q3.796875 -5.6874695 11.0 -5.6874695q3.125 0 5.734375 1.125q2.625 1.125 3.921875 2.9530945q1.3125 1.8125 1.828125 4.3125q0.328125 1.625 0.328125 5.703125l0 21.25l-5.859375 0l0 -21.03125q0 -3.578125 -0.6875 -5.34375q-0.6875 -1.78125 -2.421875 -2.828125q-1.734375 -1.0625 -4.078125 -1.0625q-3.75 0 -6.46875 2.375q-2.71875 2.375 -2.71875 9.015625l0 18.875l-5.859375 0zm34.89917 -17.28125q0 -9.609375 5.328125 -14.2187195q4.46875 -3.84375 10.875 -3.84375q7.125 0 11.640625 4.6718445q4.53125 4.671875 4.53125 12.90625q0 6.671875 -2.0 10.5q-2.0 3.8125 -5.828125 5.9375q-3.8125 2.109375 -8.34375 2.109375q-7.265625 0 -11.734375 -4.65625q-4.46875 -4.65625 -4.46875 -13.40625zm6.015625 0q0 6.640625 2.890625 9.953125q2.90625 3.296875 7.296875 3.296875q4.359375 0 7.25 -3.3125q2.90625 -3.328125 2.90625 -10.140625q0 -6.40625 -2.921875 -9.703125q-2.90625 -3.3125 -7.234375 -3.3125q-4.390625 0 -7.296875 3.296875q-2.890625 3.28125 -2.890625 9.921875zm46.02417 12.046875l0.84375 5.171875q-2.46875 0.515625 -4.421875 0.515625q-3.1875 0 -4.953125 -1.0q-1.75 -1.015625 -2.46875 -2.65625q-0.71875 -1.640625 -0.71875 -6.921875l0 -19.890625l-4.296875 0l0 -4.5468445l4.296875 0l0 -8.5625l5.828125 -3.515625l0 12.078125l5.890625 0l0 4.5468445l-5.890625 0l0 20.21875q0 2.5 0.296875 3.21875q0.3125 0.71875 1.015625 1.140625q0.703125 0.421875 2.0 0.421875q0.984375 0 2.578125 -0.21875zm23.163513 8.09375l5.703125 0.84375q0.359375 2.640625 1.984375 3.84375q2.1875 1.625 5.953125 1.625q4.078125 0 6.28125 -1.625q2.21875 -1.625 3.0 -4.546875q0.453125 -1.796875 0.421875 -7.53125q-3.84375 4.53125 -9.5625 4.53125q-7.140625 0 -11.046875 -5.140625q-3.90625 -5.140625 -3.90625 -12.34375q0 -4.9375 1.796875 -9.125q1.796875 -4.1875 5.1875 -6.4530945q3.40625 -2.28125 8.0 -2.28125q6.109375 0 10.078125 4.9374695l0 -4.1562195l5.40625 0l0 29.87497q0 8.078125 -1.640625 11.4375q-1.640625 3.375 -5.203125 5.328125q-3.5625 1.953125 -8.78125 1.953125q-6.171875 0 -9.984375 -2.78125q-3.8125 -2.78125 -3.6875 -8.390625zm4.859375 -20.765625q0 6.8125 2.703125 9.9375q2.703125 3.125 6.765625 3.125q4.03125 0 6.765625 -3.109375q2.734375 -3.109375 2.734375 -9.75q0 -6.34375 -2.8125 -9.5625q-2.8125 -3.234375 -6.78125 -3.234375q-3.90625 0 -6.640625 3.171875q-2.734375 3.171875 -2.734375 9.421875zm31.11792 0.625q0 -9.609375 5.328125 -14.2187195q4.46875 -3.84375 10.875 -3.84375q7.125 0 11.640625 4.6718445q4.53125 4.671875 4.53125 12.90625q0 6.671875 -2.0 10.5q-2.0 3.8125 -5.828125 5.9375q-3.8125 2.109375 -8.34375 2.109375q-7.265625 0 -11.734375 -4.65625q-4.46875 -4.65625 -4.46875 -13.40625zm6.015625 0q0 6.640625 2.890625 9.953125q2.90625 3.296875 7.296875 3.296875q4.359375 0 7.25 -3.3125q2.90625 -3.328125 2.90625 -10.140625q0 -6.40625 -2.921875 -9.703125q-2.90625 -3.3125 -7.234375 -3.3125q-4.390625 0 -7.296875 3.296875q-2.890625 3.28125 -2.890625 9.921875zm31.055298 0q0 -9.609375 5.328125 -14.2187195q4.46875 -3.84375 10.875 -3.84375q7.125 0 11.640625 4.6718445q4.53125 4.671875 4.53125 12.90625q0 6.671875 -2.0 10.5q-2.0 3.8125 -5.828125 5.9375q-3.8125 2.109375 -8.34375 2.109375q-7.265625 0 -11.734375 -4.65625q-4.46875 -4.65625 -4.46875 -13.40625zm6.015625 0q0 6.640625 2.890625 9.953125q2.90625 3.296875 7.296875 3.296875q4.359375 0 7.25 -3.3125q2.90625 -3.328125 2.90625 -10.140625q0 -6.40625 -2.921875 -9.703125q-2.90625 -3.3125 -7.234375 -3.3125q-4.390625 0 -7.296875 3.296875q-2.890625 3.28125 -2.890625 9.921875zm55.64917 17.28125l0 -4.359375q-3.28125 5.140625 -9.65625 5.140625q-4.140625 0 -7.609375 -2.28125q-3.453125 -2.28125 -5.359375 -6.359375q-1.90625 -4.078125 -1.90625 -9.390625q0 -5.171875 1.71875 -9.390625q1.734375 -4.21875 5.171875 -6.4530945q3.453125 -2.25 7.71875 -2.25q3.125 0 5.5625 1.328125q2.453125 1.3125 3.96875 3.4218445l0 -17.12497l5.828125 0l0 47.71872l-5.4375 0zm-18.515625 -17.25q0 6.640625 2.796875 9.9375q2.796875 3.28125 6.609375 3.28125q3.84375 0 6.53125 -3.140625q2.6875 -3.140625 2.6875 -9.59375q0 -7.09375 -2.734375 -10.40625q-2.734375 -3.328125 -6.75 -3.328125q-3.890625 0 -6.515625 3.1875q-2.625 3.1875 -2.625 10.0625z" fill-rule="nonzero"/><path fill="#000000" fill-opacity="0.0" d="m909.37006 570.4042l673.3543 0l0 100.189026l-673.3543 0z" fill-rule="evenodd"/><path fill="#000000" d="m921.68256 646.26355l5.703125 0.84375q0.359375 2.640625 1.984375 3.84375q2.1875 1.625 5.953125 1.625q4.078125 0 6.28125 -1.625q2.21875 -1.625 3.0 -4.546875q0.453125 -1.796875 0.421875 -7.53125q-3.84375 4.53125 -9.5625 4.53125q-7.140625 0 -11.046875 -5.140625q-3.90625 -5.140625 -3.90625 -12.34375q0 -4.9375 1.796875 -9.125q1.796875 -4.1875 5.1875 -6.453125q3.40625 -2.28125 8.0 -2.28125q6.109375 0 10.078125 4.9375l0 -4.15625l5.40625 0l0 29.875q0 8.078125 -1.640625 11.4375q-1.640625 3.375 -5.203125 5.328125q-3.5625 1.953125 -8.78125 1.953125q-6.171875 0 -9.984375 -2.78125q-3.8125 -2.78125 -3.6875 -8.390625zm4.859375 -20.765625q0 6.8125 2.703125 9.9375q2.703125 3.125 6.765625 3.125q4.03125 0 6.765625 -3.109375q2.734375 -3.109375 2.734375 -9.75q0 -6.34375 -2.8125 -9.5625q-2.8125 -3.234375 -6.78125 -3.234375q-3.90625 0 -6.640625 3.171875q-2.734375 3.171875 -2.734375 9.421875zm31.11792 0.625q0 -9.609375 5.328125 -14.21875q4.46875 -3.84375 10.875 -3.84375q7.125 0 11.640625 4.671875q4.53125 4.671875 4.53125 12.90625q0 6.671875 -2.0 10.5q-2.0 3.8125 -5.828125 5.9375q-3.8125 2.109375 -8.34375 2.109375q-7.265625 0 -11.734375 -4.65625q-4.46875 -4.65625 -4.46875 -13.40625zm6.015625 0q0 6.640625 2.890625 9.953125q2.90625 3.296875 7.296875 3.296875q4.359375 0 7.25 -3.3125q2.90625 -3.328125 2.90625 -10.140625q0 -6.40625 -2.921875 -9.703125q-2.90625 -3.3125 -7.234375 -3.3125q-4.390625 0 -7.296875 3.296875q-2.890625 3.28125 -2.890625 9.921875zm31.05542 0q0 -9.609375 5.328125 -14.21875q4.46875 -3.84375 10.875 -3.84375q7.125 0 11.640625 4.671875q4.531189 4.671875 4.531189 12.90625q0 6.671875 -2.0 10.5q-1.999939 3.8125 -5.828064 5.9375q-3.8125 2.109375 -8.34375 2.109375q-7.265625 0 -11.734375 -4.65625q-4.46875 -4.65625 -4.46875 -13.40625zm6.015625 0q0 6.640625 2.890625 9.953125q2.90625 3.296875 7.296875 3.296875q4.359375 0 7.25 -3.3125q2.90625 -3.328125 2.90625 -10.140625q0 -6.40625 -2.921875 -9.703125q-2.90625 -3.3125 -7.234375 -3.3125q-4.390625 0 -7.296875 3.296875q-2.890625 3.28125 -2.890625 9.921875zm55.64911 17.28125l0 -4.359375q-3.28125 5.140625 -9.65625 5.140625q-4.140625 0 -7.609375 -2.28125q-3.453125 -2.28125 -5.359375 -6.359375q-1.90625 -4.078125 -1.90625 -9.390625q0 -5.171875 1.71875 -9.390625q1.734375 -4.21875 5.171875 -6.453125q3.453125 -2.25 7.71875 -2.25q3.125 0 5.5625 1.328125q2.453125 1.3125 3.96875 3.421875l0 -17.125l5.828125 0l0 47.71875l-5.4375 0zm-18.515625 -17.25q0 6.640625 2.796875 9.9375q2.796875 3.28125 6.609375 3.28125q3.84375 0 6.53125 -3.140625q2.6875 -3.140625 2.6875 -9.59375q0 -7.09375 -2.734375 -10.40625q-2.734375 -3.328125 -6.75 -3.328125q-3.890625 0 -6.515625 3.1875q-2.625 3.1875 -2.625 10.0625zm51.684082 17.25l0 -34.5625l5.25 0l0 4.84375q1.625 -2.53125 4.328125 -4.078125q2.703125 -1.546875 6.140625 -1.546875q3.84375 0 6.296875 1.59375q2.46875 1.59375 3.46875 4.453125q4.109375 -6.046875 10.671875 -6.046875q5.15625 0 7.921875 2.84375q2.765625 2.84375 2.765625 8.765625l0 23.734375l-5.828125 0l0 -21.78125q0 -3.5 -0.578125 -5.046875q-0.5625 -1.546875 -2.0625 -2.484375q-1.5 -0.953125 -3.515625 -0.953125q-3.640625 0 -6.046875 2.421875q-2.40625 2.421875 -2.40625 7.765625l0 20.078125l-5.859375 0l0 -22.453125q0 -3.90625 -1.4375 -5.859375q-1.4375 -1.953125 -4.6875 -1.953125q-2.46875 0 -4.578125 1.296875q-2.09375 1.296875 -3.046875 3.8125q-0.9375 2.5 -0.9375 7.21875l0 17.9375l-5.859375 0zm53.35327 -17.28125q0 -9.609375 5.328125 -14.21875q4.46875 -3.84375 10.875 -3.84375q7.125 0 11.640625 4.671875q4.53125 4.671875 4.53125 12.90625q0 6.671875 -2.0 10.5q-2.0 3.8125 -5.828125 5.9375q-3.8125 2.109375 -8.34375 2.109375q-7.265625 0 -11.734375 -4.65625q-4.46875 -4.65625 -4.46875 -13.40625zm6.015625 0q0 6.640625 2.890625 9.953125q2.90625 3.296875 7.296875 3.296875q4.359375 0 7.25 -3.3125q2.90625 -3.328125 2.90625 -10.140625q0 -6.40625 -2.921875 -9.703125q-2.90625 -3.3125 -7.234375 -3.3125q-4.390625 0 -7.296875 3.296875q-2.890625 3.28125 -2.890625 9.921875zm42.83667 17.28125l-13.15625 -34.5625l6.1875 0l7.421875 20.703125q1.203125 3.34375 2.21875 6.953125q0.765625 -2.734375 2.171875 -6.5625l7.6875 -21.09375l6.015625 0l-13.078125 34.5625l-5.46875 0zm23.75 -40.984375l0 -6.734375l5.859375 0l0 6.734375l-5.859375 0zm0 40.984375l0 -34.5625l5.859375 0l0 34.5625l-5.859375 0zm38.449463 -11.125l6.046875 0.75q-1.4375 5.296875 -5.3125 8.234375q-3.859375 2.921875 -9.890625 2.921875q-7.578125 0 -12.03125 -4.671875q-4.4375 -4.671875 -4.4375 -13.09375q0 -8.734375 4.484375 -13.546875q4.5 -4.8125 11.65625 -4.8125q6.9375 0 11.328125 4.71875q4.390625 4.71875 4.390625 13.28125q0 0.515625 -0.03125 1.5625l-25.765625 0q0.3125 5.6875 3.203125 8.71875q2.90625 3.03125 7.234375 3.03125q3.234375 0 5.5 -1.6875q2.28125 -1.703125 3.625 -5.40625zm-19.25 -9.484375l19.3125 0q-0.390625 -4.359375 -2.21875 -6.53125q-2.796875 -3.390625 -7.25 -3.390625q-4.046875 0 -6.796875 2.703125q-2.75 2.703125 -3.046875 7.21875z" fill-rule="nonzero"/><path fill="#000000" fill-opacity="0.0" d="m482.6404 89.42782l479.90555 0l0 197.13385l-479.90555 0z" fill-rule="evenodd"/><path fill="#3d85c6" d="m582.90674 184.26532q-5.34375 -6.734375 -9.03125 -15.75q-3.6875 -9.03125 -3.6875 -18.703125q0 -8.515625 2.765625 -16.328125q3.21875 -9.046875 9.953125 -18.046875l4.609375 0q-4.328125 7.453125 -5.71875 10.640625q-2.1875 4.9375 -3.4375 10.3125q-1.546875 6.6875 -1.546875 13.46875q0 17.21875 10.703125 34.40625l-4.609375 0zm12.137573 -60.515625l0 -7.40625l6.4375 0l0 7.40625l-6.4375 0zm0 45.078125l0 -38.03125l6.4375 0l0 38.03125l-6.4375 0zm20.478638 15.4375l-4.625 0q10.703125 -17.1875 10.703125 -34.40625q0 -6.734375 -1.53125 -13.359375q-1.21875 -5.375 -3.40625 -10.3125q-1.390625 -3.21875 -5.765625 -10.75l4.625 0q6.734375 9.0 9.953125 18.046875q2.75 7.8125 2.75 16.328125q0 9.671875 -3.703125 18.703125q-3.703125 9.015625 -9.0 15.75zm41.526123 -15.4375l0 -52.484375l37.953125 0l0 6.1875l-31.0 0l0 16.078125l29.03125 0l0 6.15625l-29.03125 0l0 17.875l32.21875 0l0 6.1875l-39.171875 0zm43.643677 0l13.890625 -19.765625l-12.84375 -18.265625l8.046875 0l5.84375 8.921875q1.640625 2.546875 2.65625 4.265625q1.5625 -2.375 2.890625 -4.1875l6.40625 -9.0l7.703125 0l-13.140625 17.90625l14.140625 20.125l-7.90625 0l-7.8125 -11.8125l-2.078125 -3.1875l-9.984375 15.0l-7.8125 0zm55.039062 -5.765625l0.921875 5.6875q-2.71875 0.578125 -4.859375 0.578125q-3.515625 0 -5.453125 -1.109375q-1.921875 -1.109375 -2.71875 -2.90625q-0.78125 -1.8125 -0.78125 -7.625l0 -21.875l-4.734375 0l0 -5.015625l4.734375 0l0 -9.40625l6.40625 -3.875l0 13.28125l6.484375 0l0 5.015625l-6.484375 0l0 22.234375q0 2.765625 0.34375 3.5625q0.34375 0.78125 1.109375 1.25q0.765625 0.453125 2.203125 0.453125q1.078125 0 2.828125 -0.25zm6.2323 5.765625l0 -38.03125l5.796875 0l0 5.765625q2.21875 -4.046875 4.09375 -5.328125q1.890625 -1.296875 4.140625 -1.296875q3.265625 0 6.625 2.078125l-2.21875 5.984375q-2.359375 -1.390625 -4.734375 -1.390625q-2.109375 0 -3.796875 1.265625q-1.671875 1.265625 -2.390625 3.53125q-1.078125 3.4375 -1.078125 7.515625l0 19.90625l-6.4375 0zm49.293823 -4.6875q-3.578125 3.046875 -6.890625 4.296875q-3.3125 1.25 -7.109375 1.25q-6.265625 0 -9.625 -3.0625q-3.359375 -3.0625 -3.359375 -7.828125q0 -2.78125 1.265625 -5.09375q1.265625 -2.3125 3.328125 -3.703125q2.0625 -1.40625 4.640625 -2.125q1.890625 -0.5 5.71875 -0.953125q7.8125 -0.9375 11.5 -2.21875q0.03125 -1.328125 0.03125 -1.6875q0 -3.9375 -1.828125 -5.546875q-2.46875 -2.1875 -7.328125 -2.1875q-4.546875 0 -6.71875 1.59375q-2.171875 1.59375 -3.203125 5.640625l-6.296875 -0.859375q0.859375 -4.046875 2.828125 -6.53125q1.96875 -2.5 5.6875 -3.84375q3.71875 -1.34375 8.625 -1.34375q4.875 0 7.90625 1.15625q3.046875 1.140625 4.484375 2.875q1.4375 1.734375 2.0 4.390625q0.328125 1.640625 0.328125 5.9375l0 8.59375q0 8.984375 0.40625 11.375q0.421875 2.375 1.640625 4.5625l-6.734375 0q-1.0 -2.0 -1.296875 -4.6875zm-0.53125 -14.390625q-3.515625 1.421875 -10.53125 2.421875q-3.96875 0.578125 -5.625 1.296875q-1.640625 0.71875 -2.53125 2.09375q-0.890625 1.375 -0.890625 3.0625q0 2.578125 1.9375 4.296875q1.953125 1.71875 5.71875 1.71875q3.71875 0 6.609375 -1.625q2.90625 -1.640625 4.28125 -4.46875q1.03125 -2.171875 1.03125 -6.4375l0 -2.359375zm41.312866 5.15625l6.34375 0.8125q-1.03125 6.5625 -5.3125 10.265625q-4.28125 3.703125 -10.515625 3.703125q-7.796875 0 -12.546875 -5.09375q-4.75 -5.109375 -4.75 -14.640625q0 -6.15625 2.046875 -10.765625q2.046875 -4.625 6.203125 -6.9375q4.171875 -2.3125 9.078125 -2.3125q6.203125 0 10.140625 3.140625q3.9375 3.125 5.046875 8.890625l-6.265625 0.96875q-0.890625 -3.828125 -3.171875 -5.75q-2.265625 -1.9375 -5.5 -1.9375q-4.859375 0 -7.90625 3.484375q-3.046875 3.484375 -3.046875 11.046875q0 7.65625 2.9375 11.140625q2.9375 3.46875 7.671875 3.46875q3.78125 0 6.328125 -2.328125q2.546875 -2.328125 3.21875 -7.15625zm25.929688 8.15625l0.921875 5.6875q-2.71875 0.578125 -4.859375 0.578125q-3.515625 0 -5.453125 -1.109375q-1.921875 -1.109375 -2.71875 -2.90625q-0.78125 -1.8125 -0.78125 -7.625l0 -21.875l-4.734375 0l0 -5.015625l4.734375 0l0 -9.40625l6.40625 -3.875l0 13.28125l6.484375 0l0 5.015625l-6.484375 0l0 22.234375q0 2.765625 0.34375 3.5625q0.34375 0.78125 1.109375 1.25q0.765625 0.453125 2.203125 0.453125q1.078125 0 2.828125 -0.25z" fill-rule="nonzero"/><path fill="#3d85c6" d="m605.16595 256.82782l0 -38.03125l5.8125 0l0 5.40625q4.1875 -6.265625 12.09375 -6.265625q3.4375 0 6.3125 1.25q2.890625 1.234375 4.3125 3.234375q1.4375 2.0 2.015625 4.765625q0.359375 1.78125 0.359375 6.265625l0 23.375l-6.453125 0l0 -23.125q0 -3.9375 -0.75 -5.890625q-0.75 -1.953125 -2.671875 -3.109375q-1.90625 -1.171875 -4.484375 -1.171875q-4.109375 0 -7.109375 2.609375q-2.984375 2.609375 -2.984375 9.921875l0 20.765625l-6.453125 0zm39.60974 3.15625l6.265625 0.921875q0.390625 2.90625 2.1875 4.234375q2.390625 1.78125 6.546875 1.78125q4.46875 0 6.90625 -1.796875q2.4375 -1.78125 3.296875 -5.0q0.5 -1.96875 0.46875 -8.28125q-4.234375 4.984375 -10.53125 4.984375q-7.84375 0 -12.140625 -5.65625q-4.296875 -5.65625 -4.296875 -13.578125q0 -5.4375 1.96875 -10.03125q1.96875 -4.609375 5.703125 -7.109375q3.75 -2.515625 8.796875 -2.515625q6.734375 0 11.109375 5.453125l0 -4.59375l5.9375 0l0 32.875q0 8.875 -1.8125 12.578125q-1.796875 3.71875 -5.71875 5.859375q-3.921875 2.15625 -9.65625 2.15625q-6.796875 0 -10.984375 -3.0625q-4.1875 -3.0625 -4.046875 -9.21875zm5.328125 -22.84375q0 7.484375 2.96875 10.921875q2.984375 3.4375 7.453125 3.4375q4.4375 0 7.4375 -3.421875q3.015625 -3.421875 3.015625 -10.734375q0 -6.96875 -3.09375 -10.515625q-3.09375 -3.546875 -7.46875 -3.546875q-4.296875 0 -7.3125 3.5q-3.0 3.484375 -3.0 10.359375zm36.562866 19.6875l0 -38.03125l5.796875 0l0 5.765625q2.21875 -4.046875 4.09375 -5.328125q1.890625 -1.296875 4.140625 -1.296875q3.265625 0 6.625 2.078125l-2.21875 5.984375q-2.359375 -1.390625 -4.734375 -1.390625q-2.109375 0 -3.796875 1.265625q-1.671875 1.265625 -2.390625 3.53125q-1.078125 3.4375 -1.078125 7.515625l0 19.90625l-6.4375 0zm49.293884 -4.6875q-3.578125 3.046875 -6.890625 4.296875q-3.3125 1.25 -7.109375 1.25q-6.265625 0 -9.625 -3.0625q-3.359375 -3.0625 -3.359375 -7.828125q0 -2.78125 1.265625 -5.09375q1.265625 -2.3125 3.328125 -3.703125q2.0625 -1.40625 4.640625 -2.125q1.890625 -0.5 5.71875 -0.953125q7.8125 -0.9375 11.5 -2.21875q0.03125 -1.328125 0.03125 -1.6875q0 -3.9375 -1.828125 -5.546875q-2.46875 -2.1875 -7.328125 -2.1875q-4.546875 0 -6.71875 1.59375q-2.171875 1.59375 -3.203125 5.640625l-6.296875 -0.859375q0.859375 -4.046875 2.828125 -6.53125q1.96875 -2.5 5.6875 -3.84375q3.71875 -1.34375 8.625 -1.34375q4.875 0 7.90625 1.15625q3.046875 1.140625 4.484375 2.875q1.4375 1.734375 2.0 4.390625q0.328125 1.640625 0.328125 5.9375l0 8.59375q0 8.984375 0.40625 11.375q0.421875 2.375 1.640625 4.5625l-6.734375 0q-1.0 -2.0 -1.296875 -4.6875zm-0.53125 -14.390625q-3.515625 1.421875 -10.53125 2.421875q-3.96875 0.578125 -5.625 1.296875q-1.640625 0.71875 -2.53125 2.09375q-0.890625 1.375 -0.890625 3.0625q0 2.578125 1.9375 4.296875q1.953125 1.71875 5.71875 1.71875q3.71875 0 6.609375 -1.625q2.90625 -1.640625 4.28125 -4.46875q1.03125 -2.171875 1.03125 -6.4375l0 -2.359375zm16.500366 19.078125l0 -38.03125l5.765625 0l0 5.34375q1.796875 -2.796875 4.765625 -4.5q2.96875 -1.703125 6.765625 -1.703125q4.234375 0 6.9375 1.765625q2.703125 1.75 3.8125 4.90625q4.5 -6.671875 11.734375 -6.671875q5.65625 0 8.703125 3.140625q3.046875 3.125 3.046875 9.640625l0 26.109375l-6.40625 0l0 -23.953125q0 -3.859375 -0.640625 -5.5625q-0.625 -1.703125 -2.265625 -2.734375q-1.640625 -1.046875 -3.859375 -1.046875q-4.015625 0 -6.671875 2.671875q-2.640625 2.65625 -2.640625 8.53125l0 22.09375l-6.453125 0l0 -24.703125q0 -4.296875 -1.578125 -6.4375q-1.5625 -2.15625 -5.15625 -2.15625q-2.71875 0 -5.03125 1.4375q-2.296875 1.421875 -3.34375 4.1875q-1.03125 2.75 -1.03125 7.9375l0 19.734375l-6.453125 0zm58.50476 -11.34375l6.375 -1.015625q0.546875 3.84375 3.0 5.890625q2.453125 2.03125 6.84375 2.03125q4.453125 0 6.59375 -1.8125q2.15625 -1.8125 2.15625 -4.234375q0 -2.1875 -1.90625 -3.4375q-1.328125 -0.859375 -6.59375 -2.1875q-7.078125 -1.796875 -9.828125 -3.09375q-2.734375 -1.3125 -4.15625 -3.625q-1.40625 -2.3125 -1.40625 -5.09375q0 -2.546875 1.15625 -4.703125q1.171875 -2.171875 3.171875 -3.609375q1.515625 -1.109375 4.109375 -1.875q2.59375 -0.78125 5.5625 -0.78125q4.484375 0 7.859375 1.296875q3.390625 1.28125 5.0 3.484375q1.609375 2.203125 2.21875 5.890625l-6.296875 0.859375q-0.4375 -2.9375 -2.5 -4.578125q-2.0625 -1.640625 -5.8125 -1.640625q-4.4375 0 -6.34375 1.46875q-1.890625 1.453125 -1.890625 3.4375q0 1.25 0.78125 2.25q0.796875 1.03125 2.46875 1.71875q0.96875 0.359375 5.703125 1.640625q6.828125 1.828125 9.53125 3.0q2.703125 1.15625 4.234375 3.375q1.546875 2.21875 1.546875 5.515625q0 3.21875 -1.875 6.078125q-1.875 2.84375 -5.421875 4.40625q-3.546875 1.546875 -8.015625 1.546875q-7.421875 0 -11.3125 -3.078125q-3.875 -3.078125 -4.953125 -9.125z" fill-rule="nonzero"/><path fill="#000000" fill-opacity="0.0" d="m2025.0945 129.42783l343.87402 0l0 108.28346l-343.87402 0z" fill-rule="evenodd"/><path fill="#3d85c6" d="m2079.7588 224.26532q-5.34375 -6.734375 -9.03125 -15.75q-3.6875 -9.03125 -3.6875 -18.703125q0 -8.515625 2.765625 -16.328125q3.21875 -9.046875 9.953125 -18.046875l4.609375 0q-4.328125 7.453125 -5.71875 10.640625q-2.1875 4.9375 -3.4375 10.3125q-1.546875 6.6875 -1.546875 13.46875q0 17.21875 10.703125 34.40625l-4.609375 0zm12.137695 -60.515625l0 -7.40625l6.4375 0l0 7.40625l-6.4375 0zm0 45.078125l0 -38.03125l6.4375 0l0 38.03125l-6.4375 0zm16.291016 -45.078125l0 -7.40625l6.4375 0l0 7.40625l-6.4375 0zm0 45.078125l0 -38.03125l6.4375 0l0 38.03125l-6.4375 0zm16.29126 -45.078125l0 -7.40625l6.4375 0l0 7.40625l-6.4375 0zm0 45.078125l0 -38.03125l6.4375 0l0 38.03125l-6.4375 0zm20.478516 15.4375l-4.625 0q10.703125 -17.1875 10.703125 -34.40625q0 -6.734375 -1.53125 -13.359375q-1.21875 -5.375 -3.40625 -10.3125q-1.390625 -3.21875 -5.765625 -10.75l4.625 0q6.734375 9.0 9.953125 18.046875q2.75 7.8125 2.75 16.328125q0 9.671875 -3.703125 18.703125q-3.703125 9.015625 -9.0 15.75zm39.026123 -32.296875l6.546875 -0.578125q0.46875 3.9375 2.171875 6.46875q1.703125 2.515625 5.28125 4.078125q3.578125 1.5625 8.046875 1.5625q3.984375 0 7.015625 -1.1875q3.046875 -1.1875 4.53125 -3.234375q1.484375 -2.0625 1.484375 -4.5q0 -2.46875 -1.4375 -4.3125q-1.421875 -1.84375 -4.71875 -3.09375q-2.109375 -0.828125 -9.34375 -2.5625q-7.234375 -1.734375 -10.125 -3.28125q-3.765625 -1.96875 -5.609375 -4.875q-1.84375 -2.921875 -1.84375 -6.546875q0 -3.96875 2.25 -7.421875q2.265625 -3.453125 6.59375 -5.25q4.328125 -1.796875 9.640625 -1.796875q5.828125 0 10.28125 1.890625q4.46875 1.875 6.859375 5.53125q2.40625 3.640625 2.578125 8.265625l-6.65625 0.5q-0.53125 -4.96875 -3.640625 -7.515625q-3.09375 -2.546875 -9.140625 -2.546875q-6.296875 0 -9.1875 2.3125q-2.875 2.3125 -2.875 5.5625q0 2.828125 2.03125 4.65625q2.015625 1.828125 10.46875 3.75q8.46875 1.90625 11.625 3.34375q4.578125 2.109375 6.765625 5.359375q2.1875 3.234375 2.1875 7.453125q0 4.1875 -2.40625 7.90625q-2.390625 3.703125 -6.890625 5.765625q-4.484375 2.046875 -10.109375 2.046875q-7.125 0 -11.9375 -2.078125q-4.8125 -2.078125 -7.5625 -6.234375q-2.734375 -4.171875 -2.875 -9.4375zm75.36255 16.859375l0 -5.578125q-4.4375 6.4375 -12.0625 6.4375q-3.359375 0 -6.28125 -1.28125q-2.921875 -1.296875 -4.34375 -3.25q-1.40625 -1.953125 -1.984375 -4.78125q-0.390625 -1.890625 -0.390625 -6.015625l0 -23.5625l6.453125 0l0 21.09375q0 5.046875 0.390625 6.8125q0.609375 2.53125 2.578125 3.984375q1.96875 1.453125 4.859375 1.453125q2.90625 0 5.453125 -1.484375q2.546875 -1.484375 3.59375 -4.046875q1.0625 -2.5625 1.0625 -7.4375l0 -20.375l6.4375 0l0 38.03125l-5.765625 0zm15.859619 0l0 -38.03125l5.765625 0l0 5.34375q1.796875 -2.796875 4.765625 -4.5q2.96875 -1.703125 6.765625 -1.703125q4.234375 0 6.9375 1.765625q2.703125 1.75 3.8125 4.90625q4.5 -6.671875 11.734375 -6.671875q5.65625 0 8.703125 3.140625q3.046875 3.125 3.046875 9.640625l0 26.109375l-6.40625 0l0 -23.953125q0 -3.859375 -0.640625 -5.5625q-0.625 -1.703125 -2.265625 -2.734375q-1.640625 -1.046875 -3.859375 -1.046875q-4.015625 0 -6.671875 2.671875q-2.640625 2.65625 -2.640625 8.53125l0 22.09375l-6.453125 0l0 -24.703125q0 -4.296875 -1.578125 -6.4375q-1.5625 -2.15625 -5.15625 -2.15625q-2.71875 0 -5.03125 1.4375q-2.296875 1.421875 -3.34375 4.1875q-1.03125 2.75 -1.03125 7.9375l0 19.734375l-6.453125 0z" fill-rule="nonzero"/><path stroke="#9e9e9e" stroke-width="8.0" stroke-linecap="butt" d="m2341.168 284.6441l0 79.86612" fill-rule="nonzero"/><path stroke="#9e9e9e" stroke-width="8.0" stroke-linecap="butt" d="m2397.2493 284.6441l0 79.86612" fill-rule="nonzero"/><path stroke="#9e9e9e" stroke-width="8.0" stroke-linecap="butt" d="m2453.3308 284.6441l0 79.86612" fill-rule="nonzero"/><path stroke="#9e9e9e" stroke-width="8.0" stroke-linecap="butt" d="m2509.412 284.6441l0 79.86612" fill-rule="nonzero"/><path stroke="#9e9e9e" stroke-width="8.0" stroke-linecap="butt" d="m2565.4934 284.6441l0 79.86612" fill-rule="nonzero"/><path stroke="#9e9e9e" stroke-width="8.0" stroke-linecap="butt" d="m2337.168 288.6441l232.32544 0" fill-rule="nonzero"/><path stroke="#9e9e9e" stroke-width="8.0" stroke-linecap="butt" d="m2337.168 360.51022l232.32544 0" fill-rule="nonzero"/><path fill="#000000" fill-opacity="0.0" d="m2410.6377 89.42782l587.27563 0l0 197.13385l-587.27563 0z" fill-rule="evenodd"/><path fill="#3d85c6" d="m2558.4307 184.26532q-5.34375 -6.734375 -9.03125 -15.75q-3.6875 -9.03125 -3.6875 -18.703125q0 -8.515625 2.765625 -16.328125q3.21875 -9.046875 9.953125 -18.046875l4.609375 0q-4.328125 7.453125 -5.71875 10.640625q-2.1875 4.9375 -3.4375 10.3125q-1.546875 6.6875 -1.546875 13.46875q0 17.21875 10.703125 34.40625l-4.609375 0zm12.137695 -60.515625l0 -7.40625l6.4375 0l0 7.40625l-6.4375 0zm0 45.078125l0 -38.03125l6.4375 0l0 38.03125l-6.4375 0zm26.80664 0l-14.453125 -38.03125l6.796875 0l8.15625 22.78125q1.328125 3.6875 2.4375 7.65625q0.859375 -3.0 2.40625 -7.234375l8.453125 -23.203125l6.625 0l-14.40625 38.03125l-6.015625 0zm30.335938 15.4375l-4.625 0q10.703125 -17.1875 10.703125 -34.40625q0 -6.734375 -1.53125 -13.359375q-1.21875 -5.375 -3.40625 -10.3125q-1.390625 -3.21875 -5.765625 -10.75l4.625 0q6.734375 9.0 9.953125 18.046875q2.75 7.8125 2.75 16.328125q0 9.671875 -3.703125 18.703125q-3.703125 9.015625 -9.0 15.75zm41.104248 -15.4375l0 -52.484375l6.9375 0l0 46.296875l25.859375 0l0 6.1875l-32.796875 0zm40.28174 -45.078125l0 -7.40625l6.4375 0l0 7.40625l-6.4375 0zm0 45.078125l0 -38.03125l6.4375 0l0 38.03125l-6.4375 0zm16.24414 0l0 -38.03125l5.8125 0l0 5.40625q4.1875 -6.265625 12.09375 -6.265625q3.4375 0 6.3125 1.25q2.890625 1.234375 4.3125 3.234375q1.4375 2.0 2.015625 4.765625q0.359375 1.78125 0.359375 6.265625l0 23.375l-6.453125 0l0 -23.125q0 -3.9375 -0.75 -5.890625q-0.75 -1.953125 -2.671875 -3.109375q-1.90625 -1.171875 -4.484375 -1.171875q-4.109375 0 -7.109375 2.609375q-2.984375 2.609375 -2.984375 9.921875l0 20.765625l-6.453125 0zm66.81299 -12.25l6.65625 0.828125q-1.5625 5.84375 -5.828125 9.0625q-4.265625 3.21875 -10.890625 3.21875q-8.34375 0 -13.234375 -5.140625q-4.875 -5.140625 -4.875 -14.40625q0 -9.59375 4.9375 -14.890625q4.9375 -5.3125 12.8125 -5.3125q7.640625 0 12.46875 5.203125q4.828125 5.1875 4.828125 14.609375q0 0.5625 -0.03125 1.71875l-28.359375 0q0.359375 6.265625 3.546875 9.59375q3.1875 3.328125 7.953125 3.328125q3.546875 0 6.046875 -1.859375q2.5 -1.859375 3.96875 -5.953125zm-21.15625 -10.421875l21.234375 0q-0.4375 -4.796875 -2.4375 -7.1875q-3.078125 -3.71875 -7.984375 -3.71875q-4.4375 0 -7.46875 2.96875q-3.015625 2.96875 -3.34375 7.9375zm60.718994 17.984375q-3.578125 3.046875 -6.890625 4.296875q-3.3125 1.25 -7.109375 1.25q-6.265625 0 -9.625 -3.0625q-3.359375 -3.0625 -3.359375 -7.828125q0 -2.78125 1.265625 -5.09375q1.265625 -2.3125 3.328125 -3.703125q2.0625 -1.40625 4.640625 -2.125q1.890625 -0.5 5.71875 -0.953125q7.8125 -0.9375 11.5 -2.21875q0.03125 -1.328125 0.03125 -1.6875q0 -3.9375 -1.828125 -5.546875q-2.46875 -2.1875 -7.328125 -2.1875q-4.546875 0 -6.71875 1.59375q-2.171875 1.59375 -3.203125 5.640625l-6.296875 -0.859375q0.859375 -4.046875 2.828125 -6.53125q1.96875 -2.5 5.6875 -3.84375q3.71875 -1.34375 8.625 -1.34375q4.875 0 7.90625 1.15625q3.046875 1.140625 4.484375 2.875q1.4375 1.734375 2.0 4.390625q0.328125 1.640625 0.328125 5.9375l0 8.59375q0 8.984375 0.40625 11.375q0.421875 2.375 1.640625 4.5625l-6.734375 0q-1.0 -2.0 -1.296875 -4.6875zm-0.53125 -14.390625q-3.515625 1.421875 -10.53125 2.421875q-3.96875 0.578125 -5.625 1.296875q-1.640625 0.71875 -2.53125 2.09375q-0.890625 1.375 -0.890625 3.0625q0 2.578125 1.9375 4.296875q1.953125 1.71875 5.71875 1.71875q3.71875 0 6.609375 -1.625q2.90625 -1.640625 4.28125 -4.46875q1.03125 -2.171875 1.03125 -6.4375l0 -2.359375zm16.437988 19.078125l0 -38.03125l5.796875 0l0 5.765625q2.21875 -4.046875 4.09375 -5.328125q1.890625 -1.296875 4.140625 -1.296875q3.265625 0 6.625 2.078125l-2.21875 5.984375q-2.359375 -1.390625 -4.734375 -1.390625q-2.109375 0 -3.796875 1.265625q-1.671875 1.265625 -2.390625 3.53125q-1.078125 3.4375 -1.078125 7.515625l0 19.90625l-6.4375 0z" fill-rule="nonzero"/><path fill="#3d85c6" d="m2609.2441 256.82782l0 -38.03125l5.765625 0l0 5.34375q1.796875 -2.796875 4.765625 -4.5q2.96875 -1.703125 6.765625 -1.703125q4.234375 0 6.9375 1.765625q2.703125 1.75 3.8125 4.90625q4.5 -6.671875 11.734375 -6.671875q5.65625 0 8.703125 3.140625q3.046875 3.125 3.046875 9.640625l0 26.109375l-6.40625 0l0 -23.953125q0 -3.859375 -0.640625 -5.5625q-0.625 -1.703125 -2.265625 -2.734375q-1.640625 -1.046875 -3.859375 -1.046875q-4.015625 0 -6.671875 2.671875q-2.640625 2.65625 -2.640625 8.53125l0 22.09375l-6.453125 0l0 -24.703125q0 -4.296875 -1.578125 -6.4375q-1.5625 -2.15625 -5.15625 -2.15625q-2.71875 0 -5.03125 1.4375q-2.296875 1.421875 -3.34375 4.1875q-1.03125 2.75 -1.03125 7.9375l0 19.734375l-6.453125 0zm58.692383 -19.015625q0 -10.5625 5.875 -15.640625q4.90625 -4.234375 11.953125 -4.234375q7.84375 0 12.8125 5.140625q4.984375 5.140625 4.984375 14.203125q0 7.34375 -2.203125 11.546875q-2.203125 4.203125 -6.40625 6.53125q-4.203125 2.328125 -9.1875 2.328125q-7.984375 0 -12.90625 -5.109375q-4.921875 -5.125 -4.921875 -14.765625zm6.625 0q0 7.3125 3.1875 10.953125q3.1875 3.625 8.015625 3.625q4.796875 0 7.984375 -3.65625q3.1875 -3.65625 3.1875 -11.140625q0 -7.046875 -3.203125 -10.671875q-3.203125 -3.640625 -7.96875 -3.640625q-4.828125 0 -8.015625 3.625q-3.1875 3.609375 -3.1875 10.90625zm61.218994 19.015625l0 -4.796875q-3.609375 5.65625 -10.625 5.65625q-4.546875 0 -8.359375 -2.5q-3.8125 -2.515625 -5.921875 -7.0q-2.09375 -4.5 -2.09375 -10.328125q0 -5.703125 1.890625 -10.328125q1.90625 -4.640625 5.703125 -7.109375q3.796875 -2.484375 8.484375 -2.484375q3.4375 0 6.125 1.453125q2.6875 1.453125 4.375 3.78125l0 -18.828125l6.40625 0l0 52.484375l-5.984375 0zm-20.375 -18.96875q0 7.296875 3.078125 10.921875q3.078125 3.609375 7.28125 3.609375q4.21875 0 7.171875 -3.453125q2.953125 -3.453125 2.953125 -10.546875q0 -7.8125 -3.015625 -11.453125q-3.0 -3.65625 -7.40625 -3.65625q-4.296875 0 -7.1875 3.515625q-2.875 3.5 -2.875 11.0625zm62.516113 6.71875l6.65625 0.828125q-1.5625 5.84375 -5.828125 9.0625q-4.265625 3.21875 -10.890625 3.21875q-8.34375 0 -13.234375 -5.140625q-4.875 -5.140625 -4.875 -14.40625q0 -9.59375 4.9375 -14.890625q4.9375 -5.3125 12.8125 -5.3125q7.640625 0 12.46875 5.203125q4.828125 5.1875 4.828125 14.609375q0 0.5625 -0.03125 1.71875l-28.359375 0q0.359375 6.265625 3.546875 9.59375q3.1875 3.328125 7.953125 3.328125q3.546875 0 6.046875 -1.859375q2.5 -1.859375 3.96875 -5.953125zm-21.15625 -10.421875l21.234375 0q-0.4375 -4.796875 -2.4375 -7.1875q-3.078125 -3.71875 -7.984375 -3.71875q-4.4375 0 -7.46875 2.96875q-3.015625 2.96875 -3.34375 7.9375zm35.76587 22.671875l0 -52.484375l6.453125 0l0 52.484375l-6.453125 0z" fill-rule="nonzero"/><path fill="#000000" fill-opacity="0.0" d="m2801.5957 250.40158l343.87402 0l0 180.97638l-343.87402 0z" fill-rule="evenodd"/><path fill="#000000" d="m2851.9177 323.40158l0 -34.5625l5.28125 0l0 4.90625q3.796875 -5.6875 11.0 -5.6875q3.125 0 5.734375 1.125q2.625 1.125 3.921875 2.953125q1.3125 1.8125 1.828125 4.3125q0.328125 1.625 0.328125 5.703125l0 21.25l-5.859375 0l0 -21.03125q0 -3.578125 -0.6875 -5.34375q-0.6875 -1.78125 -2.421875 -2.828125q-1.734375 -1.0625 -4.078125 -1.0625q-3.75 0 -6.46875 2.375q-2.71875 2.375 -2.71875 9.015625l0 18.875l-5.859375 0zm60.74292 -11.125l6.046875 0.75q-1.4375 5.296875 -5.3125 8.234375q-3.859375 2.921875 -9.890625 2.921875q-7.578125 0 -12.03125 -4.671875q-4.4375 -4.671875 -4.4375 -13.09375q0 -8.734375 4.484375 -13.546875q4.5 -4.8125 11.65625 -4.8125q6.9375 0 11.328125 4.71875q4.390625 4.71875 4.390625 13.28125q0 0.515625 -0.03125 1.5625l-25.765625 0q0.3125 5.6875 3.203125 8.71875q2.90625 3.03125 7.234375 3.03125q3.234375 0 5.5 -1.6875q2.28125 -1.703125 3.625 -5.40625zm-19.25 -9.484375l19.3125 0q-0.390625 -4.359375 -2.21875 -6.53125q-2.796875 -3.390625 -7.25 -3.390625q-4.046875 0 -6.796875 2.703125q-2.75 2.703125 -3.046875 7.21875zm31.571045 23.46875l5.703125 0.84375q0.359375 2.640625 1.984375 3.84375q2.1875 1.625 5.953125 1.625q4.078125 0 6.28125 -1.625q2.21875 -1.625 3.0 -4.546875q0.453125 -1.796875 0.421875 -7.53125q-3.84375 4.53125 -9.5625 4.53125q-7.140625 0 -11.046875 -5.140625q-3.90625 -5.140625 -3.90625 -12.34375q0 -4.9375 1.796875 -9.125q1.796875 -4.1875 5.1875 -6.453125q3.40625 -2.28125 8.0 -2.28125q6.109375 0 10.078125 4.9375l0 -4.15625l5.40625 0l0 29.875q0 8.078125 -1.640625 11.4375q-1.640625 3.375 -5.203125 5.328125q-3.5625 1.953125 -8.78125 1.953125q-6.171875 0 -9.984375 -2.78125q-3.8125 -2.78125 -3.6875 -8.390625zm4.859375 -20.765625q0 6.8125 2.703125 9.9375q2.703125 3.125 6.765625 3.125q4.03125 0 6.765625 -3.109375q2.734375 -3.109375 2.734375 -9.75q0 -6.34375 -2.8125 -9.5625q-2.8125 -3.234375 -6.78125 -3.234375q-3.90625 0 -6.640625 3.171875q-2.734375 3.171875 -2.734375 9.421875zm55.852295 13.640625q-3.265625 2.765625 -6.28125 3.90625q-3.0 1.140625 -6.453125 1.140625q-5.6875 0 -8.75 -2.78125q-3.0625 -2.78125 -3.0625 -7.109375q0 -2.546875 1.15625 -4.640625q1.15625 -2.09375 3.03125 -3.359375q1.875 -1.28125 4.21875 -1.9375q1.71875 -0.453125 5.203125 -0.875q7.09375 -0.84375 10.4375 -2.015625q0.046875 -1.203125 0.046875 -1.53125q0 -3.578125 -1.671875 -5.046875q-2.234375 -1.984375 -6.671875 -1.984375q-4.125 0 -6.09375 1.453125q-1.96875 1.453125 -2.921875 5.125l-5.71875 -0.78125q0.78125 -3.671875 2.5625 -5.9375q1.796875 -2.265625 5.171875 -3.484375q3.390625 -1.21875 7.84375 -1.21875q4.4375 0 7.203125 1.046875q2.765625 1.03125 4.0625 2.609375q1.3125 1.578125 1.828125 3.984375q0.296875 1.5 0.296875 5.40625l0 7.8125q0 8.171875 0.375 10.34375q0.375 2.15625 1.46875 4.140625l-6.109375 0q-0.921875 -1.828125 -1.171875 -4.265625zm-0.5 -13.078125q-3.1875 1.296875 -9.5625 2.203125q-3.609375 0.53125 -5.109375 1.1875q-1.5 0.640625 -2.3125 1.890625q-0.8125 1.25 -0.8125 2.78125q0 2.34375 1.765625 3.90625q1.78125 1.5625 5.203125 1.5625q3.375 0 6.015625 -1.46875q2.640625 -1.484375 3.875 -4.0625q0.9375 -1.984375 0.9375 -5.859375l0 -2.140625zm27.80542 12.109375l0.84375 5.171875q-2.46875 0.515625 -4.421875 0.515625q-3.1875 0 -4.953125 -1.0q-1.75 -1.015625 -2.46875 -2.65625q-0.71875 -1.640625 -0.71875 -6.921875l0 -19.890625l-4.296875 0l0 -4.546875l4.296875 0l0 -8.5625l5.828125 -3.515625l0 12.078125l5.890625 0l0 4.546875l-5.890625 0l0 20.21875q0 2.5 0.296875 3.21875q0.3125 0.71875 1.015625 1.140625q0.703125 0.421875 2.0 0.421875q0.984375 0 2.578125 -0.21875zm5.753662 -35.75l0 -6.734375l5.859375 0l0 6.734375l-5.859375 0zm0 40.984375l0 -34.5625l5.859375 0l0 34.5625l-5.859375 0zm24.386963 0l-13.15625 -34.5625l6.1875 0l7.421875 20.703125q1.203125 3.34375 2.21875 6.953125q0.765625 -2.734375 2.171875 -6.5625l7.6875 -21.09375l6.015625 0l-13.078125 34.5625l-5.46875 0zm47.390625 -11.125l6.046875 0.75q-1.4375 5.296875 -5.3125 8.234375q-3.859375 2.921875 -9.890625 2.921875q-7.578125 0 -12.03125 -4.671875q-4.4375 -4.671875 -4.4375 -13.09375q0 -8.734375 4.484375 -13.546875q4.5 -4.8125 11.65625 -4.8125q6.9375 0 11.328125 4.71875q4.390625 4.71875 4.390625 13.28125q0 0.515625 -0.03125 1.5625l-25.765625 0q0.3125 5.6875 3.203125 8.71875q2.90625 3.03125 7.234375 3.03125q3.234375 0 5.5 -1.6875q2.28125 -1.703125 3.625 -5.40625zm-19.25 -9.484375l19.3125 0q-0.390625 -4.359375 -2.21875 -6.53125q-2.796875 -3.390625 -7.25 -3.390625q-4.046875 0 -6.796875 2.703125q-2.75 2.703125 -3.046875 7.21875z" fill-rule="nonzero"/><path fill="#000000" d="m2833.4148 416.65158l0 -47.8125l5.34375 0l0 4.484375q1.890625 -2.625 4.265625 -3.9375q2.375 -1.328125 5.75 -1.328125q4.4375 0 7.8125 2.28125q3.390625 2.265625 5.109375 6.421875q1.734375 4.15625 1.734375 9.09375q0 5.3125 -1.90625 9.5625q-1.90625 4.234375 -5.53125 6.5q-3.625 2.265625 -7.640625 2.265625q-2.921875 0 -5.25 -1.234375q-2.328125 -1.234375 -3.828125 -3.125l0 16.828125l-5.859375 0zm5.3125 -30.34375q0 6.671875 2.703125 9.875q2.703125 3.1875 6.53125 3.1875q3.90625 0 6.6875 -3.296875q2.78125 -3.3125 2.78125 -10.25q0 -6.609375 -2.71875 -9.890625q-2.703125 -3.28125 -6.484375 -3.28125q-3.75 0 -6.625 3.5q-2.875 3.484375 -2.875 10.15625zm31.696045 17.09375l0 -34.5625l5.265625 0l0 5.234375q2.03125 -3.671875 3.734375 -4.84375q1.703125 -1.171875 3.765625 -1.171875q2.953125 0 6.015625 1.890625l-2.015625 5.4375q-2.15625 -1.28125 -4.296875 -1.28125q-1.921875 0 -3.453125 1.15625q-1.53125 1.15625 -2.1875 3.203125q-0.96875 3.125 -0.96875 6.84375l0 18.09375l-5.859375 0zm45.931396 -11.125l6.046875 0.75q-1.4375 5.296875 -5.3125 8.234375q-3.859375 2.921875 -9.890625 2.921875q-7.578125 0 -12.03125 -4.671875q-4.4375 -4.671875 -4.4375 -13.09375q0 -8.734375 4.484375 -13.546875q4.5 -4.8125 11.65625 -4.8125q6.9375 0 11.328125 4.71875q4.390625 4.71875 4.390625 13.28125q0 0.515625 -0.03125 1.5625l-25.765625 0q0.3125 5.6875 3.203125 8.71875q2.90625 3.03125 7.234375 3.03125q3.234375 0 5.5 -1.6875q2.28125 -1.703125 3.625 -5.40625zm-19.25 -9.484375l19.3125 0q-0.390625 -4.359375 -2.21875 -6.53125q-2.796875 -3.390625 -7.25 -3.390625q-4.046875 0 -6.796875 2.703125q-2.75 2.703125 -3.046875 7.21875zm55.071045 20.609375l0 -4.359375q-3.28125 5.140625 -9.65625 5.140625q-4.140625 0 -7.609375 -2.28125q-3.453125 -2.28125 -5.359375 -6.359375q-1.90625 -4.078125 -1.90625 -9.390625q0 -5.171875 1.71875 -9.390625q1.734375 -4.21875 5.171875 -6.453125q3.453125 -2.25 7.71875 -2.25q3.125 0 5.5625 1.328125q2.453125 1.3125 3.96875 3.421875l0 -17.125l5.828125 0l0 47.71875l-5.4375 0zm-18.515625 -17.25q0 6.640625 2.796875 9.9375q2.796875 3.28125 6.609375 3.28125q3.84375 0 6.53125 -3.140625q2.6875 -3.140625 2.6875 -9.59375q0 -7.09375 -2.734375 -10.40625q-2.734375 -3.328125 -6.75 -3.328125q-3.890625 0 -6.515625 3.1875q-2.625 3.1875 -2.625 10.0625zm33.196045 -23.734375l0 -6.734375l5.859375 0l0 6.734375l-5.859375 0zm0 40.984375l0 -34.5625l5.859375 0l0 34.5625l-5.859375 0zm37.340088 -12.65625l5.75 0.75q-0.9375 5.953125 -4.828125 9.328125q-3.890625 3.359375 -9.546875 3.359375q-7.09375 0 -11.40625 -4.640625q-4.3125 -4.640625 -4.3125 -13.296875q0 -5.59375 1.84375 -9.78125q1.859375 -4.203125 5.640625 -6.296875q3.796875 -2.109375 8.265625 -2.109375q5.625 0 9.203125 2.84375q3.578125 2.84375 4.59375 8.09375l-5.703125 0.875q-0.8125 -3.484375 -2.875 -5.234375q-2.0625 -1.765625 -5.0 -1.765625q-4.421875 0 -7.1875 3.171875q-2.765625 3.171875 -2.765625 10.046875q0 6.96875 2.671875 10.125q2.671875 3.15625 6.96875 3.15625q3.4375 0 5.75 -2.109375q2.3125 -2.125 2.9375 -6.515625zm23.5625 7.421875l0.84375 5.171875q-2.46875 0.515625 -4.421875 0.515625q-3.1875 0 -4.953125 -1.0q-1.75 -1.015625 -2.46875 -2.65625q-0.71875 -1.640625 -0.71875 -6.921875l0 -19.890625l-4.296875 0l0 -4.546875l4.296875 0l0 -8.5625l5.828125 -3.515625l0 12.078125l5.890625 0l0 4.546875l-5.890625 0l0 20.21875q0 2.5 0.296875 3.21875q0.3125 0.71875 1.015625 1.140625q0.703125 0.421875 2.0 0.421875q0.984375 0 2.578125 -0.21875zm5.753662 -35.75l0 -6.734375l5.859375 0l0 6.734375l-5.859375 0zm0 40.984375l0 -34.5625l5.859375 0l0 34.5625l-5.859375 0zm12.605713 -17.28125q0 -9.609375 5.328125 -14.21875q4.46875 -3.84375 10.875 -3.84375q7.125 0 11.640625 4.671875q4.53125 4.671875 4.53125 12.90625q0 6.671875 -2.0 10.5q-2.0 3.8125 -5.828125 5.9375q-3.8125 2.109375 -8.34375 2.109375q-7.265625 0 -11.734375 -4.65625q-4.46875 -4.65625 -4.46875 -13.40625zm6.015625 0q0 6.640625 2.890625 9.953125q2.90625 3.296875 7.296875 3.296875q4.359375 0 7.25 -3.3125q2.90625 -3.328125 2.90625 -10.140625q0 -6.40625 -2.921875 -9.703125q-2.90625 -3.3125 -7.234375 -3.3125q-4.390625 0 -7.296875 3.296875q-2.890625 3.28125 -2.890625 9.921875zm33.227295 17.28125l0 -34.5625l5.28125 0l0 4.90625q3.796875 -5.6875 11.0 -5.6875q3.125 0 5.734375 1.125q2.625 1.125 3.921875 2.953125q1.3125 1.8125 1.828125 4.3125q0.328125 1.625 0.328125 5.703125l0 21.25l-5.859375 0l0 -21.03125q0 -3.578125 -0.6875 -5.34375q-0.6875 -1.78125 -2.421875 -2.828125q-1.734375 -1.0625 -4.078125 -1.0625q-3.75 0 -6.46875 2.375q-2.71875 2.375 -2.71875 9.015625l0 18.875l-5.859375 0z" fill-rule="nonzero"/><path fill="#000000" fill-opacity="0.0" d="m2616.7258 328.57742l189.6377 0" fill-rule="evenodd"/><path stroke="#3d85c6" stroke-width="8.0" stroke-linejoin="round" stroke-linecap="butt" d="m2616.7258 328.57742l141.6377 0" fill-rule="evenodd"/><path fill="#3d85c6" stroke="#3d85c6" stroke-width="8.0" stroke-linecap="butt" d="m2758.3635 341.7913l36.304688 -13.213867l-36.304688 -13.213867z" fill-rule="evenodd"/><path fill="#000000" fill-opacity="0.0" d="m2084.601 328.57742l189.6377 0" fill-rule="evenodd"/><path stroke="#3d85c6" stroke-width="8.0" stroke-linejoin="round" stroke-linecap="butt" d="m2084.601 328.57742l141.6377 0" fill-rule="evenodd"/><path fill="#3d85c6" stroke="#3d85c6" stroke-width="8.0" stroke-linecap="butt" d="m2226.2388 341.7913l36.30493 -13.213867l-36.30493 -13.213867z" fill-rule="evenodd"/><path stroke="#9e9e9e" stroke-width="8.0" stroke-linecap="butt" d="m1789.168 204.64409l0 79.866135" fill-rule="nonzero"/><path stroke="#9e9e9e" stroke-width="8.0" stroke-linecap="butt" d="m1845.2494 204.64409l0 79.866135" fill-rule="nonzero"/><path stroke="#9e9e9e" stroke-width="8.0" stroke-linecap="butt" d="m1901.3307 204.64409l0 79.866135" fill-rule="nonzero"/><path stroke="#9e9e9e" stroke-width="8.0" stroke-linecap="butt" d="m1957.4121 204.64409l0 79.866135" fill-rule="nonzero"/><path stroke="#9e9e9e" stroke-width="8.0" stroke-linecap="butt" d="m2013.4934 204.64409l0 79.866135" fill-rule="nonzero"/><path stroke="#9e9e9e" stroke-width="8.0" stroke-linecap="butt" d="m1785.168 208.64409l232.32544 0" fill-rule="nonzero"/><path stroke="#9e9e9e" stroke-width="8.0" stroke-linecap="butt" d="m1785.168 280.51022l232.32544 0" fill-rule="nonzero"/><path stroke="#9e9e9e" stroke-width="8.0" stroke-linecap="butt" d="m1789.168 316.6441l0 79.86612" fill-rule="nonzero"/><path stroke="#9e9e9e" stroke-width="8.0" stroke-linecap="butt" d="m1845.2494 316.6441l0 79.86612" fill-rule="nonzero"/><path stroke="#9e9e9e" stroke-width="8.0" stroke-linecap="butt" d="m1901.3307 316.6441l0 79.86612" fill-rule="nonzero"/><path stroke="#9e9e9e" stroke-width="8.0" stroke-linecap="butt" d="m1957.4121 316.6441l0 79.86612" fill-rule="nonzero"/><path stroke="#9e9e9e" stroke-width="8.0" stroke-linecap="butt" d="m2013.4934 316.6441l0 79.86612" fill-rule="nonzero"/><path stroke="#9e9e9e" stroke-width="8.0" stroke-linecap="butt" d="m1785.168 320.6441l232.32544 0" fill-rule="nonzero"/><path stroke="#9e9e9e" stroke-width="8.0" stroke-linecap="butt" d="m1785.168 392.51022l232.32544 0" fill-rule="nonzero"/><path fill="#000000" fill-opacity="0.0" d="m1316.3911 324.5748l189.63782 0" fill-rule="evenodd"/><path stroke="#3d85c6" stroke-width="8.0" stroke-linejoin="round" stroke-linecap="butt" d="m1316.3911 324.5748l141.63782 0" fill-rule="evenodd"/><path fill="#3d85c6" stroke="#3d85c6" stroke-width="8.0" stroke-linecap="butt" d="m1458.0289 337.78867l36.304688 -13.213867l-36.304688 -13.213867z" fill-rule="evenodd"/><path fill="#000000" fill-opacity="0.0" d="m1157.7638 89.42782l533.8268 0l0 197.13385l-533.8268 0z" fill-rule="evenodd"/><path fill="#3d85c6" d="m1223.872 184.26532q-5.34375 -6.734375 -9.03125 -15.75q-3.6875 -9.03125 -3.6875 -18.703125q0 -8.515625 2.765625 -16.328125q3.21875 -9.046875 9.953125 -18.046875l4.609375 0q-4.328125 7.453125 -5.71875 10.640625q-2.1875 4.9375 -3.4375 10.3125q-1.546875 6.6875 -1.546875 13.46875q0 17.21875 10.703125 34.40625l-4.609375 0zm12.137573 -60.515625l0 -7.40625l6.4375 0l0 7.40625l-6.4375 0zm0 45.078125l0 -38.03125l6.4375 0l0 38.03125l-6.4375 0zm16.29126 -45.078125l0 -7.40625l6.4375 0l0 7.40625l-6.4375 0zm0 45.078125l0 -38.03125l6.4375 0l0 38.03125l-6.4375 0zm20.478638 15.4375l-4.625 0q10.703125 -17.1875 10.703125 -34.40625q0 -6.734375 -1.53125 -13.359375q-1.21875 -5.375 -3.40625 -10.3125q-1.390625 -3.21875 -5.765625 -10.75l4.625 0q6.734375 9.0 9.953125 18.046875q2.75 7.8125 2.75 16.328125q0 9.671875 -3.703125 18.703125q-3.703125 9.015625 -9.0 15.75zm41.744873 -15.4375l0 -52.484375l35.40625 0l0 6.1875l-28.453125 0l0 16.25l24.625 0l0 6.203125l-24.625 0l0 23.84375l-6.953125 0zm43.651123 -45.078125l0 -7.40625l6.4375 0l0 7.40625l-6.4375 0zm0 45.078125l0 -38.03125l6.4375 0l0 38.03125l-6.4375 0zm11.947388 0l13.890625 -19.765625l-12.84375 -18.265625l8.046875 0l5.84375 8.921875q1.640625 2.546875 2.65625 4.265625q1.5625 -2.375 2.890625 -4.1875l6.40625 -9.0l7.703125 0l-13.140625 17.90625l14.140625 20.125l-7.90625 0l-7.8125 -11.8125l-2.078125 -3.1875l-9.984375 15.0l-7.8125 0zm66.99219 -12.25l6.65625 0.828125q-1.5625 5.84375 -5.828125 9.0625q-4.265625 3.21875 -10.890625 3.21875q-8.34375 0 -13.234375 -5.140625q-4.875 -5.140625 -4.875 -14.40625q0 -9.59375 4.9375 -14.890625q4.9375 -5.3125 12.8125 -5.3125q7.640625 0 12.46875 5.203125q4.828125 5.1875 4.828125 14.609375q0 0.5625 -0.03125 1.71875l-28.359375 0q0.359375 6.265625 3.546875 9.59375q3.1875 3.328125 7.953125 3.328125q3.546875 0 6.046875 -1.859375q2.5 -1.859375 3.96875 -5.953125zm-21.15625 -10.421875l21.234375 0q-0.4375 -4.796875 -2.4375 -7.1875q-3.078125 -3.71875 -7.984375 -3.71875q-4.4375 0 -7.46875 2.96875q-3.015625 2.96875 -3.34375 7.9375zm60.57849 22.671875l0 -4.796875q-3.609375 5.65625 -10.625 5.65625q-4.546875 0 -8.359375 -2.5q-3.8125 -2.515625 -5.921875 -7.0q-2.09375 -4.5 -2.09375 -10.328125q0 -5.703125 1.890625 -10.328125q1.90625 -4.640625 5.703125 -7.109375q3.796875 -2.484375 8.484375 -2.484375q3.4375 0 6.125 1.453125q2.6875 1.453125 4.375 3.78125l0 -18.828125l6.40625 0l0 52.484375l-5.984375 0zm-20.375 -18.96875q0 7.296875 3.078125 10.921875q3.078125 3.609375 7.28125 3.609375q4.21875 0 7.171875 -3.453125q2.953125 -3.453125 2.953125 -10.546875q0 -7.8125 -3.015625 -11.453125q-3.0 -3.65625 -7.40625 -3.65625q-4.296875 0 -7.1875 3.515625q-2.875 3.5 -2.875 11.0625zm33.98474 3.21875l0 -6.484375l19.796875 0l0 6.484375l-19.796875 0zm24.340698 4.40625l6.375 -1.015625q0.546875 3.84375 3.0 5.890625q2.453125 2.03125 6.84375 2.03125q4.453125 0 6.59375 -1.8125q2.15625 -1.8125 2.15625 -4.234375q0 -2.1875 -1.90625 -3.4375q-1.328125 -0.859375 -6.59375 -2.1875q-7.078125 -1.796875 -9.828125 -3.09375q-2.734375 -1.3125 -4.15625 -3.625q-1.40625 -2.3125 -1.40625 -5.09375q0 -2.546875 1.15625 -4.703125q1.171875 -2.171875 3.171875 -3.609375q1.515625 -1.109375 4.109375 -1.875q2.59375 -0.78125 5.5625 -0.78125q4.484375 0 7.859375 1.296875q3.390625 1.28125 5.0 3.484375q1.609375 2.203125 2.21875 5.890625l-6.296875 0.859375q-0.4375 -2.9375 -2.5 -4.578125q-2.0625 -1.640625 -5.8125 -1.640625q-4.4375 0 -6.34375 1.46875q-1.890625 1.453125 -1.890625 3.4375q0 1.25 0.78125 2.25q0.796875 1.03125 2.46875 1.71875q0.96875 0.359375 5.703125 1.640625q6.828125 1.828125 9.53125 3.0q2.703125 1.15625 4.234375 3.375q1.546875 2.21875 1.546875 5.515625q0 3.21875 -1.875 6.078125q-1.875 2.84375 -5.421875 4.40625q-3.546875 1.546875 -8.015625 1.546875q-7.421875 0 -11.3125 -3.078125q-3.875 -3.078125 -4.953125 -9.125zm39.289062 -33.734375l0 -7.40625l6.4375 0l0 7.40625l-6.4375 0zm0 45.078125l0 -38.03125l6.4375 0l0 38.03125l-6.4375 0zm12.853638 0l0 -5.234375l24.203125 -27.78125q-4.125 0.21875 -7.265625 0.21875l-15.515625 0l0 -5.234375l31.078125 0l0 4.265625l-20.578125 24.140625l-3.984375 4.390625q4.34375 -0.3125 8.140625 -0.3125l17.578125 0l0 5.546875l-33.65625 0zm66.08594 -12.25l6.65625 0.828125q-1.5625 5.84375 -5.828125 9.0625q-4.265625 3.21875 -10.890625 3.21875q-8.34375 0 -13.234375 -5.140625q-4.875 -5.140625 -4.875 -14.40625q0 -9.59375 4.9375 -14.890625q4.9375 -5.3125 12.8125 -5.3125q7.640625 0 12.46875 5.203125q4.828125 5.1875 4.828125 14.609375q0 0.5625 -0.03125 1.71875l-28.359375 0q0.359375 6.265625 3.546875 9.59375q3.1875 3.328125 7.953125 3.328125q3.546875 0 6.046875 -1.859375q2.5 -1.859375 3.96875 -5.953125zm-21.15625 -10.421875l21.234375 0q-0.4375 -4.796875 -2.4375 -7.1875q-3.078125 -3.71875 -7.984375 -3.71875q-4.4375 0 -7.46875 2.96875q-3.015625 2.96875 -3.34375 7.9375z" fill-rule="nonzero"/><path fill="#3d85c6" d="m1255.7819 244.57782l6.65625 0.828125q-1.5625 5.84375 -5.828125 9.0625q-4.265625 3.21875 -10.890625 3.21875q-8.34375 0 -13.234375 -5.140625q-4.875 -5.140625 -4.875 -14.40625q0 -9.59375 4.9375 -14.890625q4.9375 -5.3125 12.8125 -5.3125q7.640625 0 12.46875 5.203125q4.828125 5.1875 4.828125 14.609375q0 0.5625 -0.03125 1.71875l-28.359375 0q0.359375 6.265625 3.546875 9.59375q3.1875 3.328125 7.953125 3.328125q3.546875 0 6.046875 -1.859375q2.5 -1.859375 3.96875 -5.953125zm-21.15625 -10.421875l21.234375 0q-0.4375 -4.796875 -2.4375 -7.1875q-3.078125 -3.71875 -7.984375 -3.71875q-4.4375 0 -7.46875 2.96875q-3.015625 2.96875 -3.34375 7.9375zm35.906616 22.671875l0 -38.03125l5.765625 0l0 5.34375q1.796875 -2.796875 4.765625 -4.5q2.96875 -1.703125 6.765625 -1.703125q4.234375 0 6.9375 1.765625q2.703125 1.75 3.8125 4.90625q4.5 -6.671875 11.734375 -6.671875q5.65625 0 8.703125 3.140625q3.046875 3.125 3.046875 9.640625l0 26.109375l-6.40625 0l0 -23.953125q0 -3.859375 -0.640625 -5.5625q-0.625 -1.703125 -2.265625 -2.734375q-1.640625 -1.046875 -3.859375 -1.046875q-4.015625 0 -6.671875 2.671875q-2.640625 2.65625 -2.640625 8.53125l0 22.09375l-6.453125 0l0 -24.703125q0 -4.296875 -1.578125 -6.4375q-1.5625 -2.15625 -5.15625 -2.15625q-2.71875 0 -5.03125 1.4375q-2.296875 1.421875 -3.34375 4.1875q-1.03125 2.75 -1.03125 7.9375l0 19.734375l-6.453125 0zm67.03601 0l-5.984375 0l0 -52.484375l6.453125 0l0 18.71875q4.078125 -5.125 10.40625 -5.125q3.515625 0 6.640625 1.421875q3.140625 1.40625 5.15625 3.96875q2.03125 2.5625 3.171875 6.1875q1.15625 3.609375 1.15625 7.734375q0 9.765625 -4.84375 15.109375q-4.828125 5.328125 -11.59375 5.328125q-6.734375 0 -10.5625 -5.625l0 4.765625zm-0.078125 -19.296875q0 6.84375 1.859375 9.875q3.046875 4.984375 8.234375 4.984375q4.234375 0 7.3125 -3.671875q3.078125 -3.671875 3.078125 -10.9375q0 -7.453125 -2.953125 -10.984375q-2.953125 -3.546875 -7.140625 -3.546875q-4.234375 0 -7.3125 3.671875q-3.078125 3.65625 -3.078125 10.609375zm60.937866 7.046875l6.65625 0.828125q-1.5625 5.84375 -5.828125 9.0625q-4.265625 3.21875 -10.890625 3.21875q-8.34375 0 -13.234375 -5.140625q-4.875 -5.140625 -4.875 -14.40625q0 -9.59375 4.9375 -14.890625q4.9375 -5.3125 12.8125 -5.3125q7.640625 0 12.46875 5.203125q4.828125 5.1875 4.828125 14.609375q0 0.5625 -0.03125 1.71875l-28.359375 0q0.359375 6.265625 3.546875 9.59375q3.1875 3.328125 7.953125 3.328125q3.546875 0 6.046875 -1.859375q2.5 -1.859375 3.96875 -5.953125zm-21.15625 -10.421875l21.234375 0q-0.4375 -4.796875 -2.4375 -7.1875q-3.078125 -3.71875 -7.984375 -3.71875q-4.4375 0 -7.46875 2.96875q-3.015625 2.96875 -3.34375 7.9375zm60.57849 22.671875l0 -4.796875q-3.609375 5.65625 -10.625 5.65625q-4.546875 0 -8.359375 -2.5q-3.8125 -2.515625 -5.921875 -7.0q-2.09375 -4.5 -2.09375 -10.328125q0 -5.703125 1.890625 -10.328125q1.90625 -4.640625 5.703125 -7.109375q3.796875 -2.484375 8.484375 -2.484375q3.4375 0 6.125 1.453125q2.6875 1.453125 4.375 3.78125l0 -18.828125l6.40625 0l0 52.484375l-5.984375 0zm-20.375 -18.96875q0 7.296875 3.078125 10.921875q3.078125 3.609375 7.28125 3.609375q4.21875 0 7.171875 -3.453125q2.953125 -3.453125 2.953125 -10.546875q0 -7.8125 -3.015625 -11.453125q-3.0 -3.65625 -7.40625 -3.65625q-4.296875 0 -7.1875 3.515625q-2.875 3.5 -2.875 11.0625zm61.156616 18.96875l0 -4.796875q-3.609375 5.65625 -10.625 5.65625q-4.546875 0 -8.359375 -2.5q-3.8125 -2.515625 -5.921875 -7.0q-2.09375 -4.5 -2.09375 -10.328125q0 -5.703125 1.890625 -10.328125q1.90625 -4.640625 5.703125 -7.109375q3.796875 -2.484375 8.484375 -2.484375q3.4375 0 6.125 1.453125q2.6875 1.453125 4.375 3.78125l0 -18.828125l6.40625 0l0 52.484375l-5.984375 0zm-20.375 -18.96875q0 7.296875 3.078125 10.921875q3.078125 3.609375 7.28125 3.609375q4.21875 0 7.171875 -3.453125q2.953125 -3.453125 2.953125 -10.546875q0 -7.8125 -3.015625 -11.453125q-3.0 -3.65625 -7.40625 -3.65625q-4.296875 0 -7.1875 3.515625q-2.875 3.5 -2.875 11.0625zm36.531616 -26.109375l0 -7.40625l6.4375 0l0 7.40625l-6.4375 0zm0 45.078125l0 -38.03125l6.4375 0l0 38.03125l-6.4375 0zm16.244263 0l0 -38.03125l5.8125 0l0 5.40625q4.1875 -6.265625 12.09375 -6.265625q3.4375 0 6.3125 1.25q2.890625 1.234375 4.3125 3.234375q1.4375 2.0 2.015625 4.765625q0.359375 1.78125 0.359375 6.265625l0 23.375l-6.453125 0l0 -23.125q0 -3.9375 -0.75 -5.890625q-0.75 -1.953125 -2.671875 -3.109375q-1.90625 -1.171875 -4.484375 -1.171875q-4.109375 0 -7.109375 2.609375q-2.984375 2.609375 -2.984375 9.921875l0 20.765625l-6.453125 0zm39.60974 3.15625l6.265625 0.921875q0.390625 2.90625 2.1875 4.234375q2.390625 1.78125 6.546875 1.78125q4.46875 0 6.90625 -1.796875q2.4375 -1.78125 3.296875 -5.0q0.5 -1.96875 0.46875 -8.28125q-4.234375 4.984375 -10.53125 4.984375q-7.84375 0 -12.140625 -5.65625q-4.296875 -5.65625 -4.296875 -13.578125q0 -5.4375 1.96875 -10.03125q1.96875 -4.609375 5.703125 -7.109375q3.75 -2.515625 8.796875 -2.515625q6.734375 0 11.109375 5.453125l0 -4.59375l5.9375 0l0 32.875q0 8.875 -1.8125 12.578125q-1.796875 3.71875 -5.71875 5.859375q-3.921875 2.15625 -9.65625 2.15625q-6.796875 0 -10.984375 -3.0625q-4.1875 -3.0625 -4.046875 -9.21875zm5.328125 -22.84375q0 7.484375 2.96875 10.921875q2.984375 3.4375 7.453125 3.4375q4.4375 0 7.4375 -3.421875q3.015625 -3.421875 3.015625 -10.734375q0 -6.96875 -3.09375 -10.515625q-3.09375 -3.546875 -7.46875 -3.546875q-4.296875 0 -7.3125 3.5q-3.0 3.484375 -3.0 10.359375zm34.04724 8.34375l6.375 -1.015625q0.546875 3.84375 3.0 5.890625q2.453125 2.03125 6.84375 2.03125q4.453125 0 6.59375 -1.8125q2.15625 -1.8125 2.15625 -4.234375q0 -2.1875 -1.90625 -3.4375q-1.328125 -0.859375 -6.59375 -2.1875q-7.078125 -1.796875 -9.828125 -3.09375q-2.734375 -1.3125 -4.15625 -3.625q-1.40625 -2.3125 -1.40625 -5.09375q0 -2.546875 1.15625 -4.703125q1.171875 -2.171875 3.171875 -3.609375q1.515625 -1.109375 4.109375 -1.875q2.59375 -0.78125 5.5625 -0.78125q4.484375 0 7.859375 1.296875q3.390625 1.28125 5.0 3.484375q1.609375 2.203125 2.21875 5.890625l-6.296875 0.859375q-0.4375 -2.9375 -2.5 -4.578125q-2.0625 -1.640625 -5.8125 -1.640625q-4.4375 0 -6.34375 1.46875q-1.890625 1.453125 -1.890625 3.4375q0 1.25 0.78125 2.25q0.796875 1.03125 2.46875 1.71875q0.96875 0.359375 5.703125 1.640625q6.828125 1.828125 9.53125 3.0q2.703125 1.15625 4.234375 3.375q1.546875 2.21875 1.546875 5.515625q0 3.21875 -1.875 6.078125q-1.875 2.84375 -5.421875 4.40625q-3.546875 1.546875 -8.015625 1.546875q-7.421875 0 -11.3125 -3.078125q-3.875 -3.078125 -4.953125 -9.125z" fill-rule="nonzero"/><path fill="#000000" fill-opacity="0.0" d="m1663.6837 172.29659l224.31494 0l0 116.34645l-224.31494 0z" fill-rule="evenodd"/><path fill="#000000" d="m1674.2462 258.0966l1.140625 -5.46875l22.296875 -25.125q2.390625 -2.65625 5.3125 -5.5q-5.03125 0.5 -7.21875 0.5l-15.4375 0l1.25 -5.890625l32.078125 0l-0.9375 4.453125l-22.5 25.265625q-1.921875 2.15625 -5.703125 5.90625q5.890625 -0.359375 8.078125 -0.359375l16.328125 0l-1.28125 6.21875l-33.40625 0z" fill-rule="nonzero"/><path fill="#000000" d="m1725.5275 288.0966l6.03125 -28.828125q-3.90625 3.078125 -10.984375 4.921875l0.890625 -4.265625q3.515625 -1.40625 6.9375 -3.671875q3.421875 -2.265625 5.140625 -3.953125q1.046875 -1.046875 1.984375 -2.53125l2.734375 0l-8.0 38.328125l-4.734375 0z" fill-rule="nonzero"/><path fill="#000000" fill-opacity="0.0" d="m1663.6837 268.2966l224.31494 0l0 116.346436l-224.31494 0z" fill-rule="evenodd"/><path fill="#000000" d="m1674.2462 354.0966l1.140625 -5.46875l22.296875 -25.125q2.390625 -2.65625 5.3125 -5.5q-5.03125 0.5 -7.21875 0.5l-15.4375 0l1.25 -5.890625l32.078125 0l-0.9375 4.453125l-22.5 25.265625q-1.921875 2.15625 -5.703125 5.90625q5.890625 -0.359375 8.078125 -0.359375l16.328125 0l-1.28125 6.21875l-33.40625 0z" fill-rule="nonzero"/><path fill="#000000" d="m1715.8087 384.0966q0.734375 -3.40625 2.015625 -5.703125q1.296875 -2.3125 3.421875 -4.375q2.140625 -2.078125 8.234375 -6.953125q3.703125 -2.9375 5.046875 -4.34375q1.953125 -2.03125 2.84375 -3.984375q0.59375 -1.328125 0.59375 -2.890625q0 -2.625 -1.859375 -4.453125q-1.859375 -1.84375 -4.5625 -1.84375q-2.6875 0 -4.703125 1.859375q-2.0 1.859375 -2.859375 5.96875l-4.609375 -0.671875q0.6875 -5.078125 3.953125 -8.0q3.265625 -2.9375 8.140625 -2.9375q3.25 0 5.890625 1.359375q2.640625 1.34375 3.96875 3.796875q1.328125 2.453125 1.328125 5.046875q0 3.796875 -2.703125 7.3125q-1.671875 2.1875 -9.796875 8.625q-3.484375 2.765625 -5.1875 4.53125q-1.703125 1.765625 -2.5625 3.328125l17.078125 0l-0.90625 4.328125l-22.765625 0z" fill-rule="nonzero"/><path stroke="#9e9e9e" stroke-width="8.0" stroke-linecap="butt" d="m1789.168 588.6441l0 79.86615" fill-rule="nonzero"/><path stroke="#9e9e9e" stroke-width="8.0" stroke-linecap="butt" d="m1845.2494 588.6441l0 79.86615" fill-rule="nonzero"/><path stroke="#9e9e9e" stroke-width="8.0" stroke-linecap="butt" d="m1901.3307 588.6441l0 79.86615" fill-rule="nonzero"/><path stroke="#9e9e9e" stroke-width="8.0" stroke-linecap="butt" d="m1957.4121 588.6441l0 79.86615" fill-rule="nonzero"/><path stroke="#9e9e9e" stroke-width="8.0" stroke-linecap="butt" d="m2013.4934 588.6441l0 79.86615" fill-rule="nonzero"/><path stroke="#9e9e9e" stroke-width="8.0" stroke-linecap="butt" d="m1785.168 592.6441l232.32544 0" fill-rule="nonzero"/><path stroke="#9e9e9e" stroke-width="8.0" stroke-linecap="butt" d="m1785.168 664.51025l232.32544 0" fill-rule="nonzero"/><path fill="#000000" fill-opacity="0.0" d="m1663.6837 556.2966l224.31494 0l0 116.3465l-224.31494 0z" fill-rule="evenodd"/><path fill="#000000" d="m1674.2462 642.09656l1.140625 -5.46875l22.296875 -25.125q2.390625 -2.65625 5.3125 -5.5q-5.03125 0.5 -7.21875 0.5l-15.4375 0l1.25 -5.890625l32.078125 0l-0.9375 4.453125l-22.5 25.265625q-1.921875 2.15625 -5.703125 5.90625q5.890625 -0.359375 8.078125 -0.359375l16.328125 0l-1.28125 6.21875l-33.40625 0z" fill-rule="nonzero"/><path fill="#000000" d="m1716.4025 661.1903l4.796875 -0.46875q-0.046875 1.015625 -0.046875 1.21875q0 1.71875 0.859375 3.46875q0.875 1.734375 2.375 2.671875q1.5 0.921875 3.171875 0.921875q2.1875 0 4.453125 -1.515625q2.265625 -1.515625 3.671875 -4.40625q1.40625 -2.890625 1.40625 -5.71875q0 -3.203125 -1.890625 -5.125q-1.890625 -1.9375 -4.96875 -1.9375q-2.046875 0 -3.890625 1.0q-1.828125 0.984375 -3.421875 2.953125l-4.109375 -0.28125l5.75 -19.53125l18.640625 0l-0.90625 4.328125l-14.5 0l-2.875 9.703125q1.625 -1.171875 3.328125 -1.75q1.703125 -0.59375 3.5 -0.59375q4.375 0 7.1875 2.890625q2.8125 2.890625 2.8125 7.921875q0 4.40625 -1.9375 8.125q-1.921875 3.703125 -5.296875 5.703125q-3.359375 1.984375 -7.265625 1.984375q-3.28125 0 -5.8125 -1.484375q-2.53125 -1.484375 -3.796875 -4.09375q-1.25 -2.609375 -1.25 -5.203125q0 -0.265625 0.015625 -0.78125z" fill-rule="nonzero"/><path fill="#000000" fill-opacity="0.0" d="m1853.1719 360.5092l224.31494 0l0 116.346466l-224.31494 0z" fill-rule="evenodd"/><path fill="#000000" d="m1871.5156 446.30917l0 -8.015625l8.0 0l0 8.015625l-8.0 0zm26.671875 0l0 -8.015625l8.015625 0l0 8.015625l-8.015625 0zm26.640625 0l0 -8.015625l8.046875 0l0 8.015625l-8.046875 0z" fill-rule="nonzero"/><path fill="#000000" fill-opacity="0.0" d="m627.7743 328.57742l189.63776 0" fill-rule="evenodd"/><path stroke="#3d85c6" stroke-width="8.0" stroke-linejoin="round" stroke-linecap="butt" d="m627.7743 328.57742l141.63776 0" fill-rule="evenodd"/><path fill="#3d85c6" stroke="#3d85c6" stroke-width="8.0" stroke-linecap="butt" d="m769.41205 341.7913l36.30481 -13.213867l-36.30481 -13.213867z" fill-rule="evenodd"/><path fill="#000000" fill-opacity="0.0" d="m2541.4172 347.49347l314.9607 0l0 116.346436l-314.9607 0z" fill-rule="evenodd"/><path fill="#3d85c6" d="m2680.5579 433.29346l-4.328125 -41.484375l6.796875 0l1.875 18.625l0.734375 10.46875q0.078125 1.171875 0.234375 4.734375q1.171875 -3.984375 1.984375 -6.109375q0.828125 -2.140625 2.625 -6.078125l9.890625 -21.640625l7.6875 0l1.375 20.734375q0.3125 4.734375 0.390625 12.625q1.953125 -5.234375 6.359375 -14.53125l8.90625 -18.828125l7.078125 0l-20.28125 41.484375l-7.34375 0l-1.5625 -24.34375q-0.15625 -2.265625 -0.234375 -8.828125q-1.59375 4.1875 -3.78125 9.03125l-10.984375 24.140625l-7.421875 0z" fill-rule="nonzero"/><path fill="#ffffff" d="m2205.8293 478.0525l800.0945 0l0 205.22833l-800.0945 0z" fill-rule="evenodd"/><path fill="#980000" d="m2334.5088 557.4525l0 -52.484406l37.953125 0l0 6.1875l-31.0 0l0 16.078156l29.03125 0l0 6.15625l-29.03125 0l0 17.875l32.21875 0l0 6.1875l-39.171875 0zm72.753174 -4.6875q-3.578125 3.046875 -6.890625 4.296875q-3.3125 1.25 -7.109375 1.25q-6.265625 0 -9.625 -3.0625q-3.359375 -3.0625 -3.359375 -7.828125q0 -2.78125 1.265625 -5.09375q1.265625 -2.3125 3.328125 -3.703125q2.0625 -1.40625 4.640625 -2.125q1.890625 -0.5 5.71875 -0.953125q7.8125 -0.9375 11.5 -2.21875q0.03125 -1.328125 0.03125 -1.6875q0 -3.9375 -1.828125 -5.546875q-2.46875 -2.1875 -7.328125 -2.1875q-4.546875 0 -6.71875 1.59375q-2.171875 1.59375 -3.203125 5.640625l-6.296875 -0.859375q0.859375 -4.046875 2.828125 -6.53125q1.96875 -2.5 5.6875 -3.84375q3.71875 -1.34375 8.625 -1.34375q4.875 0 7.90625 1.15625q3.046875 1.140625 4.484375 2.875q1.4375 1.734375 2.0 4.390625q0.328125 1.640625 0.328125 5.9375l0 8.59375q0 8.984375 0.40625 11.375q0.421875 2.375 1.640625 4.5625l-6.734375 0q-1.0 -2.0 -1.296875 -4.6875zm-0.53125 -14.390625q-3.515625 1.421875 -10.53125 2.421875q-3.96875 0.578125 -5.625 1.296875q-1.640625 0.71875 -2.53125 2.09375q-0.890625 1.375 -0.890625 3.0625q0 2.578125 1.9375 4.296875q1.953125 1.71875 5.71875 1.71875q3.71875 0 6.609375 -1.625q2.90625 -1.640625 4.28125 -4.46875q1.03125 -2.171875 1.03125 -6.4375l0 -2.359375zm41.312744 5.15625l6.34375 0.8125q-1.03125 6.5625 -5.3125 10.265625q-4.28125 3.703125 -10.515625 3.703125q-7.796875 0 -12.546875 -5.09375q-4.75 -5.109375 -4.75 -14.640625q0 -6.15625 2.046875 -10.765625q2.046875 -4.625 6.203125 -6.9375q4.171875 -2.3125 9.078125 -2.3125q6.203125 0 10.140625 3.140625q3.9375 3.125 5.046875 8.890625l-6.265625 0.96875q-0.890625 -3.828125 -3.171875 -5.75q-2.265625 -1.9375 -5.5 -1.9375q-4.859375 0 -7.90625 3.484375q-3.046875 3.484375 -3.046875 11.046875q0 7.65625 2.9375 11.140625q2.9375 3.46875 7.671875 3.46875q3.78125 0 6.328125 -2.328125q2.546875 -2.328125 3.21875 -7.15625zm11.8515625 13.921875l0 -52.484406l6.453125 0l0 18.828156q4.515625 -5.234375 11.390625 -5.234375q4.21875 0 7.328125 1.671875q3.125 1.671875 4.46875 4.609375q1.34375 2.921875 1.34375 8.515625l0 24.09375l-6.453125 0l0 -24.09375q0 -4.84375 -2.09375 -7.03125q-2.09375 -2.203125 -5.921875 -2.203125q-2.875 0 -5.40625 1.484375q-2.515625 1.484375 -3.59375 4.03125q-1.0625 2.53125 -1.0625 7.015625l0 20.796875l-6.453125 0zm61.15454 0l0 -38.03125l5.8125 0l0 5.40625q4.1875 -6.265625 12.09375 -6.265625q3.4375 0 6.3125 1.25q2.890625 1.234375 4.3125 3.234375q1.4375 2.0 2.015625 4.765625q0.359375 1.78125 0.359375 6.265625l0 23.375l-6.453125 0l0 -23.125q0 -3.9375 -0.75 -5.890625q-0.75 -1.953125 -2.671875 -3.109375q-1.90625 -1.171875 -4.484375 -1.171875q-4.109375 0 -7.109375 2.609375q-2.984375 2.609375 -2.984375 9.921875l0 20.765625l-6.453125 0zm39.609863 3.15625l6.265625 0.921875q0.390625 2.90625 2.1875 4.234375q2.390625 1.78125 6.546875 1.78125q4.46875 0 6.90625 -1.796875q2.4375 -1.78125 3.296875 -5.0q0.5 -1.96875 0.46875 -8.28125q-4.234375 4.984375 -10.53125 4.984375q-7.84375 0 -12.140625 -5.65625q-4.296875 -5.65625 -4.296875 -13.578125q0 -5.4375 1.96875 -10.03125q1.96875 -4.609375 5.703125 -7.109375q3.75 -2.515625 8.796875 -2.515625q6.734375 0 11.109375 5.453125l0 -4.59375l5.9375 0l0 32.875q0 8.875 -1.8125 12.578125q-1.796875 3.71875 -5.71875 5.859375q-3.921875 2.15625 -9.65625 2.15625q-6.796875 0 -10.984375 -3.0625q-4.1875 -3.0625 -4.046875 -9.21875zm5.328125 -22.84375q0 7.484375 2.96875 10.921875q2.984375 3.4375 7.453125 3.4375q4.4375 0 7.4375 -3.421875q3.015625 -3.421875 3.015625 -10.734375q0 -6.96875 -3.09375 -10.515625q-3.09375 -3.546875 -7.46875 -3.546875q-4.296875 0 -7.3125 3.5q-3.0 3.484375 -3.0 10.359375zm36.562744 19.6875l0 -38.03125l5.796875 0l0 5.765625q2.21875 -4.046875 4.09375 -5.328125q1.890625 -1.296875 4.140625 -1.296875q3.265625 0 6.625 2.078125l-2.21875 5.984375q-2.359375 -1.390625 -4.734375 -1.390625q-2.109375 0 -3.796875 1.265625q-1.671875 1.265625 -2.390625 3.53125q-1.078125 3.4375 -1.078125 7.515625l0 19.90625l-6.4375 0zm49.293945 -4.6875q-3.578125 3.046875 -6.890625 4.296875q-3.3125 1.25 -7.109375 1.25q-6.265625 0 -9.625 -3.0625q-3.359375 -3.0625 -3.359375 -7.828125q0 -2.78125 1.265625 -5.09375q1.265625 -2.3125 3.328125 -3.703125q2.0625 -1.40625 4.640625 -2.125q1.890625 -0.5 5.71875 -0.953125q7.8125 -0.9375 11.5 -2.21875q0.03125 -1.328125 0.03125 -1.6875q0 -3.9375 -1.828125 -5.546875q-2.46875 -2.1875 -7.328125 -2.1875q-4.546875 0 -6.71875 1.59375q-2.171875 1.59375 -3.203125 5.640625l-6.296875 -0.859375q0.859375 -4.046875 2.828125 -6.53125q1.96875 -2.5 5.6875 -3.84375q3.71875 -1.34375 8.625 -1.34375q4.875 0 7.90625 1.15625q3.046875 1.140625 4.484375 2.875q1.4375 1.734375 2.0 4.390625q0.328125 1.640625 0.328125 5.9375l0 8.59375q0 8.984375 0.40625 11.375q0.421875 2.375 1.640625 4.5625l-6.734375 0q-1.0 -2.0 -1.296875 -4.6875zm-0.53125 -14.390625q-3.515625 1.421875 -10.53125 2.421875q-3.96875 0.578125 -5.625 1.296875q-1.640625 0.71875 -2.53125 2.09375q-0.890625 1.375 -0.890625 3.0625q0 2.578125 1.9375 4.296875q1.953125 1.71875 5.71875 1.71875q3.71875 0 6.609375 -1.625q2.90625 -1.640625 4.28125 -4.46875q1.03125 -2.171875 1.03125 -6.4375l0 -2.359375zm16.500244 19.078125l0 -38.03125l5.765625 0l0 5.34375q1.796875 -2.796875 4.765625 -4.5q2.96875 -1.703125 6.765625 -1.703125q4.234375 0 6.9375 1.765625q2.703125 1.75 3.8125 4.90625q4.5 -6.671875 11.734375 -6.671875q5.65625 0 8.703125 3.140625q3.046875 3.125 3.046875 9.640625l0 26.109375l-6.40625 0l0 -23.953125q0 -3.859375 -0.640625 -5.5625q-0.625 -1.703125 -2.265625 -2.734375q-1.640625 -1.046875 -3.859375 -1.046875q-4.015625 0 -6.671875 2.671875q-2.640625 2.65625 -2.640625 8.53125l0 22.09375l-6.453125 0l0 -24.703125q0 -4.296875 -1.578125 -6.4375q-1.5625 -2.15625 -5.15625 -2.15625q-2.71875 0 -5.03125 1.4375q-2.296875 1.421875 -3.34375 4.1875q-1.03125 2.75 -1.03125 7.9375l0 19.734375l-6.453125 0zm80.283936 3.15625l6.265625 0.921875q0.390625 2.90625 2.1875 4.234375q2.390625 1.78125 6.546875 1.78125q4.46875 0 6.90625 -1.796875q2.4375 -1.78125 3.296875 -5.0q0.5 -1.96875 0.46875 -8.28125q-4.234375 4.984375 -10.53125 4.984375q-7.84375 0 -12.140625 -5.65625q-4.296875 -5.65625 -4.296875 -13.578125q0 -5.4375 1.96875 -10.03125q1.96875 -4.609375 5.703125 -7.109375q3.75 -2.515625 8.796875 -2.515625q6.734375 0 11.109375 5.453125l0 -4.59375l5.9375 0l0 32.875q0 8.875 -1.8125 12.578125q-1.796875 3.71875 -5.71875 5.859375q-3.921875 2.15625 -9.65625 2.15625q-6.796875 0 -10.984375 -3.0625q-4.1875 -3.0625 -4.046875 -9.21875zm5.328125 -22.84375q0 7.484375 2.96875 10.921875q2.984375 3.4375 7.453125 3.4375q4.4375 0 7.4375 -3.421875q3.015625 -3.421875 3.015625 -10.734375q0 -6.96875 -3.09375 -10.515625q-3.09375 -3.546875 -7.46875 -3.546875q-4.296875 0 -7.3125 3.5q-3.0 3.484375 -3.0 10.359375zm62.65674 7.4375l6.65625 0.828125q-1.5625 5.84375 -5.828125 9.0625q-4.265625 3.21875 -10.890625 3.21875q-8.34375 0 -13.234375 -5.140625q-4.875 -5.140625 -4.875 -14.40625q0 -9.59375 4.9375 -14.890625q4.9375 -5.3125 12.8125 -5.3125q7.640625 0 12.46875 5.203125q4.828125 5.1875 4.828125 14.609375q0 0.5625 -0.03125 1.71875l-28.359375 0q0.359375 6.265625 3.546875 9.59375q3.1875 3.328125 7.953125 3.328125q3.546875 0 6.046875 -1.859375q2.5 -1.859375 3.96875 -5.953125zm-21.15625 -10.421875l21.234375 0q-0.4375 -4.796875 -2.4375 -7.1875q-3.078125 -3.71875 -7.984375 -3.71875q-4.4375 0 -7.46875 2.96875q-3.015625 2.96875 -3.34375 7.9375zm49.98462 16.90625l0.921875 5.6875q-2.71875 0.578125 -4.859375 0.578125q-3.515625 0 -5.453125 -1.109375q-1.921875 -1.109375 -2.71875 -2.90625q-0.78125 -1.8125 -0.78125 -7.625l0 -21.875l-4.734375 0l0 -5.015625l4.734375 0l0 -9.4062805l6.40625 -3.875l0 13.2812805l6.484375 0l0 5.015625l-6.484375 0l0 22.234375q0 2.765625 0.34375 3.5625q0.34375 0.78125 1.109375 1.25q0.765625 0.453125 2.203125 0.453125q1.078125 0 2.828125 -0.25zm3.7167969 -5.578125l6.375 -1.015625q0.546875 3.84375 3.0 5.890625q2.453125 2.03125 6.84375 2.03125q4.453125 0 6.59375 -1.8125q2.15625 -1.8125 2.15625 -4.234375q0 -2.1875 -1.90625 -3.4375q-1.328125 -0.859375 -6.59375 -2.1875q-7.078125 -1.796875 -9.828125 -3.09375q-2.734375 -1.3125 -4.15625 -3.625q-1.40625 -2.3125 -1.40625 -5.09375q0 -2.546875 1.15625 -4.703125q1.171875 -2.171875 3.171875 -3.609375q1.515625 -1.109375 4.109375 -1.875q2.59375 -0.78125 5.5625 -0.78125q4.484375 0 7.859375 1.296875q3.390625 1.28125 5.0 3.484375q1.609375 2.203125 2.21875 5.890625l-6.296875 0.859375q-0.4375 -2.9375 -2.5 -4.578125q-2.0625 -1.640625 -5.8125 -1.640625q-4.4375 0 -6.34375 1.46875q-1.890625 1.453125 -1.890625 3.4375q0 1.25 0.78125 2.25q0.796875 1.03125 2.46875 1.71875q0.96875 0.359375 5.703125 1.640625q6.828125 1.828125 9.53125 3.0q2.703125 1.15625 4.234375 3.375q1.546875 2.21875 1.546875 5.515625q0 3.21875 -1.875 6.078125q-1.875 2.84375 -5.421875 4.40625q-3.546875 1.546875 -8.015625 1.546875q-7.421875 0 -11.3125 -3.078125q-3.875 -3.078125 -4.953125 -9.125z" fill-rule="nonzero"/><path fill="#980000" d="m2265.0051 651.8525l0 -52.484375l6.453125 0l0 52.484375l-6.453125 0zm16.478516 -45.078125l0 -7.40625l6.4375 0l0 7.40625l-6.4375 0zm0 45.078125l0 -38.03125l6.4375 0l0 38.03125l-6.4375 0zm16.244385 0l0 -38.03125l5.8125 0l0 5.40625q4.1875 -6.265625 12.09375 -6.265625q3.4375 0 6.3125 1.25q2.890625 1.234375 4.3125 3.234375q1.4375 2.0 2.015625 4.765625q0.359375 1.78125 0.359375 6.265625l0 23.375l-6.453125 0l0 -23.125q0 -3.9375 -0.75 -5.890625q-0.75 -1.953125 -2.671875 -3.109375q-1.90625 -1.171875 -4.484375 -1.171875q-4.109375 0 -7.109375 2.609375q-2.984375 2.609375 -2.984375 9.921875l0 20.765625l-6.453125 0zm66.812744 -12.25l6.65625 0.828125q-1.5625 5.84375 -5.828125 9.0625q-4.265625 3.21875 -10.890625 3.21875q-8.34375 0 -13.234375 -5.140625q-4.875 -5.140625 -4.875 -14.40625q0 -9.59375 4.9375 -14.890625q4.9375 -5.3125 12.8125 -5.3125q7.640625 0 12.46875 5.203125q4.828125 5.1875 4.828125 14.609375q0 0.5625 -0.03125 1.71875l-28.359375 0q0.359375 6.265625 3.546875 9.59375q3.1875 3.328125 7.953125 3.328125q3.546875 0 6.046875 -1.859375q2.5 -1.859375 3.96875 -5.953125zm-21.15625 -10.421875l21.234375 0q-0.4375 -4.796875 -2.4375 -7.1875q-3.078125 -3.71875 -7.984375 -3.71875q-4.4375 0 -7.46875 2.96875q-3.015625 2.96875 -3.34375 7.9375zm60.71924 17.984375q-3.578125 3.046875 -6.890625 4.296875q-3.3125 1.25 -7.109375 1.25q-6.265625 0 -9.625 -3.0625q-3.359375 -3.0625 -3.359375 -7.828125q0 -2.78125 1.265625 -5.09375q1.265625 -2.3125 3.328125 -3.703125q2.0625 -1.40625 4.640625 -2.125q1.890625 -0.5 5.71875 -0.953125q7.8125 -0.9375 11.5 -2.21875q0.03125 -1.328125 0.03125 -1.6875q0 -3.9375 -1.828125 -5.546875q-2.46875 -2.1875 -7.328125 -2.1875q-4.546875 0 -6.71875 1.59375q-2.171875 1.59375 -3.203125 5.640625l-6.296875 -0.859375q0.859375 -4.046875 2.828125 -6.53125q1.96875 -2.5 5.6875 -3.84375q3.71875 -1.34375 8.625 -1.34375q4.875 0 7.90625 1.15625q3.046875 1.140625 4.484375 2.875q1.4375 1.734375 2.0 4.390625q0.328125 1.640625 0.328125 5.9375l0 8.59375q0 8.984375 0.40625 11.375q0.421875 2.375 1.640625 4.5625l-6.734375 0q-1.0 -2.0 -1.296875 -4.6875zm-0.53125 -14.390625q-3.515625 1.421875 -10.53125 2.421875q-3.96875 0.578125 -5.625 1.296875q-1.640625 0.71875 -2.53125 2.09375q-0.890625 1.375 -0.890625 3.0625q0 2.578125 1.9375 4.296875q1.953125 1.71875 5.71875 1.71875q3.71875 0 6.609375 -1.625q2.90625 -1.640625 4.28125 -4.46875q1.03125 -2.171875 1.03125 -6.4375l0 -2.359375zm16.437744 19.078125l0 -38.03125l5.796875 0l0 5.765625q2.21875 -4.046875 4.09375 -5.328125q1.890625 -1.296875 4.140625 -1.296875q3.265625 0 6.625 2.078125l-2.21875 5.984375q-2.359375 -1.390625 -4.734375 -1.390625q-2.109375 0 -3.796875 1.265625q-1.671875 1.265625 -2.390625 3.53125q-1.078125 3.4375 -1.078125 7.515625l0 19.90625l-6.4375 0zm69.66675 -13.921875l6.34375 0.8125q-1.03125 6.5625 -5.3125 10.265625q-4.28125 3.703125 -10.515625 3.703125q-7.796875 0 -12.546875 -5.09375q-4.75 -5.109375 -4.75 -14.640625q0 -6.15625 2.046875 -10.765625q2.046875 -4.625 6.203125 -6.9375q4.171875 -2.3125 9.078125 -2.3125q6.203125 0 10.140625 3.140625q3.9375 3.125 5.046875 8.890625l-6.265625 0.96875q-0.890625 -3.828125 -3.171875 -5.75q-2.265625 -1.9375 -5.5 -1.9375q-4.859375 0 -7.90625 3.484375q-3.046875 3.484375 -3.046875 11.046875q0 7.65625 2.9375 11.140625q2.9375 3.46875 7.671875 3.46875q3.78125 0 6.328125 -2.328125q2.546875 -2.328125 3.21875 -7.15625zm9.4609375 -5.09375q0 -10.5625 5.875 -15.640625q4.90625 -4.234375 11.953125 -4.234375q7.84375 0 12.8125 5.140625q4.984375 5.140625 4.984375 14.203125q0 7.34375 -2.203125 11.546875q-2.203125 4.203125 -6.40625 6.53125q-4.203125 2.328125 -9.1875 2.328125q-7.984375 0 -12.90625 -5.109375q-4.921875 -5.125 -4.921875 -14.765625zm6.625 0q0 7.3125 3.1875 10.953125q3.1875 3.625 8.015625 3.625q4.796875 0 7.984375 -3.65625q3.1875 -3.65625 3.1875 -11.140625q0 -7.046875 -3.203125 -10.671875q-3.203125 -3.640625 -7.96875 -3.640625q-4.828125 0 -8.015625 3.625q-3.1875 3.609375 -3.1875 10.90625zm62.578613 6.765625l6.65625 0.828125q-1.5625 5.84375 -5.828125 9.0625q-4.265625 3.21875 -10.890625 3.21875q-8.34375 0 -13.234375 -5.140625q-4.875 -5.140625 -4.875 -14.40625q0 -9.59375 4.9375 -14.890625q4.9375 -5.3125 12.8125 -5.3125q7.640625 0 12.46875 5.203125q4.828125 5.1875 4.828125 14.609375q0 0.5625 -0.03125 1.71875l-28.359375 0q0.359375 6.265625 3.546875 9.59375q3.1875 3.328125 7.953125 3.328125q3.546875 0 6.046875 -1.859375q2.5 -1.859375 3.96875 -5.953125zm-21.15625 -10.421875l21.234375 0q-0.4375 -4.796875 -2.4375 -7.1875q-3.078125 -3.71875 -7.984375 -3.71875q-4.4375 0 -7.46875 2.96875q-3.015625 2.96875 -3.34375 7.9375zm37.45337 22.671875l0 -33.015625l-5.6875 0l0 -5.015625l5.6875 0l0 -4.046875q0 -3.828125 0.671875 -5.6875q0.9375 -2.5 3.28125 -4.0625q2.34375 -1.5625 6.578125 -1.5625q2.71875 0 6.015625 0.65625l-0.96875 5.609375q-2.015625 -0.359375 -3.796875 -0.359375q-2.9375 0 -4.15625 1.265625q-1.21875 1.25 -1.21875 4.6875l0 3.5l7.40625 0l0 5.015625l-7.40625 0l0 33.015625l-6.40625 0zm19.048096 0l0 -33.015625l-5.6875 0l0 -5.015625l5.6875 0l0 -4.046875q0 -3.828125 0.671875 -5.6875q0.9375 -2.5 3.28125 -4.0625q2.34375 -1.5625 6.578125 -1.5625q2.71875 0 6.015625 0.65625l-0.96875 5.609375q-2.015625 -0.359375 -3.796875 -0.359375q-2.9375 0 -4.15625 1.265625q-1.21875 1.25 -1.21875 4.6875l0 3.5l7.40625 0l0 5.015625l-7.40625 0l0 33.015625l-6.40625 0zm18.873047 -45.078125l0 -7.40625l6.4375 0l0 7.40625l-6.4375 0zm0 45.078125l0 -38.03125l6.4375 0l0 38.03125l-6.4375 0zm41.05664 -13.921875l6.34375 0.8125q-1.03125 6.5625 -5.3125 10.265625q-4.28125 3.703125 -10.515625 3.703125q-7.796875 0 -12.546875 -5.09375q-4.75 -5.109375 -4.75 -14.640625q0 -6.15625 2.046875 -10.765625q2.046875 -4.625 6.203125 -6.9375q4.171875 -2.3125 9.078125 -2.3125q6.203125 0 10.140625 3.140625q3.9375 3.125 5.046875 8.890625l-6.265625 0.96875q-0.890625 -3.828125 -3.171875 -5.75q-2.265625 -1.9375 -5.5 -1.9375q-4.859375 0 -7.90625 3.484375q-3.046875 3.484375 -3.046875 11.046875q0 7.65625 2.9375 11.140625q2.9375 3.46875 7.671875 3.46875q3.78125 0 6.328125 -2.328125q2.546875 -2.328125 3.21875 -7.15625zm11.8984375 -31.15625l0 -7.40625l6.4375 0l0 7.40625l-6.4375 0zm0 45.078125l0 -38.03125l6.4375 0l0 38.03125l-6.4375 0zm42.275635 -12.25l6.65625 0.828125q-1.5625 5.84375 -5.828125 9.0625q-4.265625 3.21875 -10.890625 3.21875q-8.34375 0 -13.234375 -5.140625q-4.875 -5.140625 -4.875 -14.40625q0 -9.59375 4.9375 -14.890625q4.9375 -5.3125 12.8125 -5.3125q7.640625 0 12.46875 5.203125q4.828125 5.1875 4.828125 14.609375q0 0.5625 -0.03125 1.71875l-28.359375 0q0.359375 6.265625 3.546875 9.59375q3.1875 3.328125 7.953125 3.328125q3.546875 0 6.046875 -1.859375q2.5 -1.859375 3.96875 -5.953125zm-21.15625 -10.421875l21.234375 0q-0.4375 -4.796875 -2.4375 -7.1875q-3.078125 -3.71875 -7.984375 -3.71875q-4.4375 0 -7.46875 2.96875q-3.015625 2.96875 -3.34375 7.9375zm35.906494 22.671875l0 -38.03125l5.8125 0l0 5.40625q4.1875 -6.265625 12.09375 -6.265625q3.4375 0 6.3125 1.25q2.890625 1.234375 4.3125 3.234375q1.4375 2.0 2.015625 4.765625q0.359375 1.78125 0.359375 6.265625l0 23.375l-6.453125 0l0 -23.125q0 -3.9375 -0.75 -5.890625q-0.75 -1.953125 -2.671875 -3.109375q-1.90625 -1.171875 -4.484375 -1.171875q-4.109375 0 -7.109375 2.609375q-2.984375 2.609375 -2.984375 9.921875l0 20.765625l-6.453125 0zm54.859863 -5.765625l0.921875 5.6875q-2.71875 0.578125 -4.859375 0.578125q-3.515625 0 -5.453125 -1.109375q-1.921875 -1.109375 -2.71875 -2.90625q-0.78125 -1.8125 -0.78125 -7.625l0 -21.875l-4.734375 0l0 -5.015625l4.734375 0l0 -9.40625l6.40625 -3.875l0 13.28125l6.484375 0l0 5.015625l-6.484375 0l0 22.234375q0 2.765625 0.34375 3.5625q0.34375 0.78125 1.109375 1.25q0.765625 0.453125 2.203125 0.453125q1.078125 0 2.828125 -0.25z" fill-rule="nonzero"/><path fill="#980000" d="m2810.8027 651.8525l1.140625 -5.46875l22.296875 -25.125q2.390625 -2.65625 5.3125 -5.5q-5.03125 0.5 -7.21875 0.5l-15.4375 0l1.25 -5.890625l32.078125 0l-0.9375 4.453125l-22.5 25.265625q-1.921875 2.15625 -5.703125 5.90625q5.890625 -0.359375 8.078125 -0.359375l16.328125 0l-1.28125 6.21875l-33.40625 0z" fill-rule="nonzero"/><path fill="#980000" d="m2857.709 649.02435l1.109375 -5.34375l4.6875 0l-1.109375 5.34375l-4.6875 0zm-6.875 32.828125l5.78125 -27.65625l4.703125 0l-5.78125 27.65625l-4.703125 0z" fill-rule="nonzero"/><path fill="#980000" d="m2873.1973 621.8525l7.0625 -33.828125l-12.53125 0l0.90625 -4.34375l30.046875 0l-0.90625 4.34375l-12.421875 0l-7.046875 33.828125l-5.109375 0z" fill-rule="nonzero"/><path fill="#980000" d="m2904.2092 651.8525l-4.328125 -41.484375l6.796875 0l1.875 18.625l0.734375 10.46875q0.078125 1.171875 0.234375 4.734375q1.171875 -3.984375 1.984375 -6.109375q0.828125 -2.140625 2.625 -6.078125l9.890625 -21.640625l7.6875 0l1.375 20.734375q0.3125 4.734375 0.390625 12.625q1.953125 -5.234375 6.359375 -14.53125l8.90625 -18.828125l7.078125 0l-20.28125 41.484375l-7.34375 0l-1.5625 -24.34375q-0.15625 -2.265625 -0.234375 -8.828125q-1.59375 4.1875 -3.78125 9.03125l-10.984375 24.140625l-7.421875 0z" fill-rule="nonzero"/><path fill="#eeeeee" d="m1281.9055 365.2955l292.81885 0l0 196.06302l-292.81885 0z" fill-rule="evenodd"/><path stroke="#595959" stroke-width="1.0" stroke-linejoin="round" stroke-linecap="butt" d="m1281.9055 365.2955l292.81885 0l0 196.06302l-292.81885 0z" fill-rule="evenodd"/><path fill="#000000" fill-opacity="0.0" d="m1339.3517 406.6997l174.70874 0l0 108.28345l-174.70874 0z" fill-rule="evenodd"/><path fill="#3d85c6" d="m1353.7267 486.0997l0 -52.484375l6.9375 0l0 46.296875l25.859375 0l0 6.1875l-32.796875 0zm40.781616 0l0 -52.484375l6.9375 0l0 46.296875l25.859375 0l0 6.1875l-32.796875 0zm40.844116 0l0 -52.484375l10.453125 0l12.4375 37.15625q1.71875 5.203125 2.5 7.765625q0.890625 -2.859375 2.796875 -8.40625l12.5625 -36.515625l9.34375 0l0 52.484375l-6.6875 0l0 -43.9375l-15.265625 43.9375l-6.265625 0l-15.171875 -44.6875l0 44.6875l-6.703125 0z" fill-rule="nonzero"/></g></svg>